<?xml version="1.0" encoding="utf-8"?><!-- Uploaded to: SVG Repo, www.svgrepo.com, Generator: SVG Repo Mixer Tools -->
<svg fill="#000000" width="800px" height="800px" viewBox="0 -2.86 106.007 106.007" xmlns="http://www.w3.org/2000/svg">
  <path id="_aim" data-name="
aim" d="M644.823,1013.945c-1.609,0-3.224.073-4.828-.019a2.949,2.949,0,0,1-3.094-2.72,26.338,26.338,0,0,1-.609-6.591,1.921,1.921,0,0,0-1.389-2.039,7.606,7.606,0,0,0-1.988-.641c-4.846-.582-9.342-2.315-13.791-4.176a10.286,10.286,0,0,1-3.027-1.933c-1.754-1.65-3.4-3.422-5-5.218-1.072-1.2-1.942-2.572-3.006-3.772a9.432,9.432,0,0,1-2-3.663,50.577,50.577,0,0,1-1.812-8.526c-.112-.933-.4-1.2-1.379-1.179a27.258,27.258,0,0,0-6,.444c-.489.121-1,.137-1.494.225-2.108.376-3.426-.755-4.491-2.357a1.991,1.991,0,0,1-.332-.831,52.318,52.318,0,0,1-.576-5.675,38.538,38.538,0,0,1,.51-5.684,3.4,3.4,0,0,1,3.111-2.85,17.4,17.4,0,0,1,2.108-.043c1.709-.026,3.418-.034,5.128-.082.713-.021,1.038-.4,1.1-1.146.108-1.3.188-2.6.328-3.894a11.438,11.438,0,0,1,2.1-5.271,96.339,96.339,0,0,1,8.014-10.184,19.1,19.1,0,0,1,9.847-6.087,9.466,9.466,0,0,0,1.975-.728,29.02,29.02,0,0,1,7.07-2.533,4.471,4.471,0,0,0,.567-.2,1.125,1.125,0,0,0,.841-1.109c.028-2.012.073-4.024.041-6.035a8.844,8.844,0,0,1,.514-2.934,3.717,3.717,0,0,1,3.6-2.7,27.514,27.514,0,0,1,4.22,0,25.058,25.058,0,0,0,4.182.195c2.27-.192,3.742,1.119,4.166,3.5.336,1.875.48,3.785.684,5.683.062.6.025,1.206.056,1.808.059,1.085.207,1.216,1.174,1.395,1.873.346,3.754.668,5.606,1.111a36.5,36.5,0,0,1,19.232,11.731,40.932,40.932,0,0,1,6.43,9.794,30.812,30.812,0,0,1,1.83,5.724,1.42,1.42,0,0,0,1.392,1.24,24.828,24.828,0,0,0,5.342.618,3.757,3.757,0,0,1,2.725,1.115c.521.471.98,1.009,1.488,1.5A2.121,2.121,0,0,1,696,960.84c-.012,1.811.035,3.623-.025,5.432a5.383,5.383,0,0,1-1.821,4,3.43,3.43,0,0,1-1.56.832,17.453,17.453,0,0,1-5.987.3,12.832,12.832,0,0,0-1.794-.188c-1.389-.044-1.627.123-2.211,1.525a54.648,54.648,0,0,1-18.332,23.085,38.465,38.465,0,0,1-8.616,4.928c-.558.224-1.1.483-1.642.751a1.2,1.2,0,0,0-.647,1.252q.159,2.555.324,5.106c.006.1,0,.2,0,.3-.021,3.237.264,2.471-2.2,4.888a3.145,3.145,0,0,1-2.435.942c-1.408-.034-2.817-.008-4.225-.008Zm27.045-58.011v-.014h1.207c3.4,0,3.834.288,2.395-3.437a10.718,10.718,0,0,0-.625-1.371c-2.928-5.29-6.67-9.763-12.166-12.62a37.916,37.916,0,0,0-11.459-3.519c-.311-.052-.793.454-.76.8.25,2.7.525,5.4.754,8.1a16.759,16.759,0,0,1,.131,3.608c-.455,3.342-2.037,5.2-5.225,4.96a13.787,13.787,0,0,0-4.49.343,9.746,9.746,0,0,1-3,.166,3.672,3.672,0,0,1-3.649-3.63,10.993,10.993,0,0,0-.261-2.085,41.314,41.314,0,0,1-1.139-6.516c-.113-.9-.172-1.8-.271-2.7-.053-.5-.352-.631-.86-.394a45.713,45.713,0,0,0-6.537,3.74,84.42,84.42,0,0,0-8.937,7.162,4.924,4.924,0,0,0-1.709,2.769q-.326,1.776-.58,3.566a.833.833,0,0,0,1.086,1.012,35.253,35.253,0,0,1,7.208-.452,8.488,8.488,0,0,1,2.374.3,3.824,3.824,0,0,1,3,3.721c.111,2.409.045,4.828-.008,7.241a3.785,3.785,0,0,1-1.51,3.161,8.449,8.449,0,0,1-4.369,1.852c-2.1.118-4.184.449-6.274.7a.935.935,0,0,0-.843,1.051q1.083,3.914,2.218,7.815a3.734,3.734,0,0,0,1.588,2.13c2.354,1.542,4.639,3.2,7.061,4.622a30.261,30.261,0,0,0,9.256,3.529c1.1.226,1.5-.068,1.578-1.148.16-2.3.363-4.609.4-6.916a4.689,4.689,0,0,1,1.488-3.448,5.754,5.754,0,0,1,3.819-1.533,31.473,31.473,0,0,1,4.826-.019c3.322.2,4.9,1.03,4.922,4.993q.021,2.716.094,5.433c.009.471-.11,1.02.488,1.278q3.043-1.284,6.088-2.568c.277-.118.549-.253.824-.375a8.931,8.931,0,0,0,2.945-2.059c2.883-3.085,5.793-6.145,8.662-9.246a9.452,9.452,0,0,0,1.362-1.98c1.428-2.668,2.193-2.875-1.725-2.9-.5,0-1.008-.017-1.508-.069a12.7,12.7,0,0,1-4.613-1.28,2.824,2.824,0,0,1-1.769-2.895,11.56,11.56,0,0,0-.827-5.608,1.866,1.866,0,0,1,.137-1.745,9.284,9.284,0,0,1,1.445-1.889,7.509,7.509,0,0,1,4.444-1.616A28.673,28.673,0,0,1,671.868,955.934Zm-54.5,9.981.012.239h2.406a3.22,3.22,0,0,0,2.754-1.566,2.9,2.9,0,0,0-1.846-4.459,14.094,14.094,0,0,0-2.1-.063c-5.215-.031-10.379.97-15.6.758a2.194,2.194,0,0,0-.6.042,14.717,14.717,0,0,1-6.231.426,1.857,1.857,0,0,0-2.1,1.722,10.669,10.669,0,0,0-.043,2.4c.189,1.821,1.3,2.546,3.144,2.12,1.461-.337,2.891-.814,4.438-.353a2.426,2.426,0,0,0,1.459-.2,13.527,13.527,0,0,1,5.029-.63c2.006-.023,4.008-.166,6.014-.261C615.186,966.034,616.276,965.971,617.364,965.915Zm29.319-26.975c-.084-.956-.168-1.956-.264-2.955a27.842,27.842,0,0,1-.328-3.578c.121-3.134-.5-6.191-.809-9.279a5.956,5.956,0,0,0-.521-1.715,1.9,1.9,0,0,0-1.635-1.163,2.363,2.363,0,0,0-2.67,1.451,12.615,12.615,0,0,0-.9,6.765c.429,3.883,1.177,7.735,1.033,11.669a2.967,2.967,0,0,0,.107.889,3.237,3.237,0,0,0,2.889,2.256,2.974,2.974,0,0,0,2.961-2.494A17.245,17.245,0,0,0,646.683,938.94Zm30.677,27.435c2.893.045,5.8-.368,8.682.331a2.848,2.848,0,0,0,3.189-1.725,2.994,2.994,0,0,0-.689-3.321,3.572,3.572,0,0,0-2.742-.994c-2.9.1-5.809.131-8.711.267-2,.093-3.992.3-5.986.486a1.046,1.046,0,0,0-1.061,1.183c.014.7.123,1.4.1,2.1-.061,1.52.482,1.66,1.808,1.669C673.751,966.383,675.556,966.375,677.36,966.375ZM642.6,997.148l.127.013c.058,2.4.107,4.8.183,7.206a8.051,8.051,0,0,0,.217,1.782,2.512,2.512,0,0,0,2.514,1.757,2.319,2.319,0,0,0,2.3-2.3c.03-.5-.021-1-.013-1.5a105.666,105.666,0,0,0-1.885-19.06.792.792,0,0,0-.771-.753,10,10,0,0,0-1.2-.028.928.928,0,0,0-.953.929c.028.892.168,1.79.115,2.678C643.052,990.967,642.811,994.057,642.6,997.148Z" transform="translate(-589.997 -913.712)" fill-rule="evenodd"/>
</svg>