<?xml version="1.0" encoding="utf-8"?><!-- Uploaded to: SVG Repo, www.svgrepo.com, Generator: SVG Repo Mixer Tools -->
<svg fill="#000000" width="800px" height="800px" viewBox="0 -4.65 110.724 110.724" xmlns="http://www.w3.org/2000/svg">
  <path id="_chart02" data-name="
chart02" d="M786.439,662.713a8.691,8.691,0,0,1-.089-1.5c-.008-1.609.009-3.221,0-4.83-.009-2.058-.021-2.082-1.947-2.1-.726-.008-1.453,0-2.179.01-.782.009-1.565.018-2.347.008a8.98,8.98,0,0,1-2.086-.205,1.647,1.647,0,0,1-.734-2.682,4.064,4.064,0,0,1,3.168-1.488c1.709-.01,3.419-.014,5.129-.047.783-.014,1.111-.319,1.124-1.094a18.782,18.782,0,0,1,1.048-6.5,5.146,5.146,0,0,0,.135-1.789c-.053-6.941.082-13.888-.229-20.818-.387-8.641-.35-17.287-.572-25.928-.1-3.717-.258-7.43-.4-11.144-.019-.522-.252-.735-.722-.547-.989.394-1.993.627-2.818-.188a3.867,3.867,0,0,1-.957-3.351,15.591,15.591,0,0,1,.619-2.323c.61-2.123,1.256-4.235,1.825-6.369.309-1.16.4-2.385.754-3.529a7.284,7.284,0,0,1,1.236-2.365,2.023,2.023,0,0,1,2.456-.612c.995.4,1.864,1,1.776,2.17-.221,3.017.985,5.7,1.826,8.464.73,2.4,1.514,4.784,2.244,7.184a2.141,2.141,0,0,1-.486,2.24,1.944,1.944,0,0,1-2.183.59c-.486-.166-.792-.022-.782.49.027,1.607.064,3.217.154,4.822.106,1.9.285,3.8.412,5.705.468,7.022.45,14.067.814,21.09.4,7.643.34,15.276.249,22.914a52.1,52.1,0,0,1-.9,9.879c-.148.726.176,1.1.977,1.138q1.357.058,2.714.057c15.591-.042,31.18,0,46.769-.194a137.743,137.743,0,0,0,14.123-.9,39.628,39.628,0,0,1,4.519-.19c1.591,0,3.183.011,4.775.024,2.029.017,4.058.034,6.088.019a3.516,3.516,0,0,1,3.119,1.451c.81,1.086.874,1.055,1.936.607.459-.2.919-.385,1.371-.592.077-.035.178-.16.167-.22-.042-.174-.094-.43-.219-.486a12.476,12.476,0,0,0-1.953-.768,14.236,14.236,0,0,1-3.975-2.107,2.957,2.957,0,0,1-.8-.877,1.29,1.29,0,0,1,1.035-1.974,16.845,16.845,0,0,1,5.325.924c2.683.826,5.213,2.09,7.944,2.813,1.444.383,1.948,2.606.942,3.767a7.818,7.818,0,0,1-1.6,1.352,20.043,20.043,0,0,1-2.6,1.524c-2.271,1.06-4.538,2.148-6.877,3.04-2.284.871-3.716-.326-3.507-2.751.084-.966.009-1.078-.806-1.08-2.313-.008-4.626,0-6.938,0-3.313.176-6.619.3-9.928.575-5.9.49-11.822.892-17.764.851-13.576-.1-27.156-.1-40.734-.144-.8,0-1.61-.023-2.413-.023-2.374,0-2.377,0-2.382,2.243,0,1.408.009,2.817,0,4.225a8.7,8.7,0,0,1-.1,1.5,2.219,2.219,0,0,1-2.359,1.89H788.8A2.2,2.2,0,0,1,786.439,662.713Zm24.226-23.305c-.07-.7-.041-1.406-.064-2.109a4.83,4.83,0,0,0-.086-1.2,1.311,1.311,0,0,0-.579-.59,1.351,1.351,0,0,0-.587-.1c-2.131-.221-3.01-1.255-3.039-3.371-.01-.7-.062-1.406-.065-2.109-.035-5.835-.074-11.669-.086-17.5,0-1.811.086-3.621.121-5.432a5.157,5.157,0,0,1,.559-2.318,2.048,2.048,0,0,1,1.579-1.239c.692-.106,1.367-.318,2.057-.441.872-.154,1.537-.641.992-1.7a6.888,6.888,0,0,1-.448-4.375c.236-1.682.078-3.415.179-5.121a11.988,11.988,0,0,1,.462-2.647,1.725,1.725,0,0,1,1.791-1.32,2.088,2.088,0,0,1,1.838,1.732,18.9,18.9,0,0,1,.063,2.108c.031,3.32.049,6.638.087,9.957.014,1.031.162,1.14,1.229,1.3.891.136,1.781.287,2.659.484a2.49,2.49,0,0,1,1.994,2.353,14.778,14.778,0,0,1,.068,1.807c.007,2.615,0,5.231,0,7.846,0,2.012.047,4.023-.015,6.034-.049,1.6-.268,3.2-.348,4.8-.086,1.7-.108,3.416-.135,5.121a5.249,5.249,0,0,1-.526,2.625,2.412,2.412,0,0,1-2.125,1.436c-1,.024-2.012.02-3.016.058a.954.954,0,0,0-.924.994c-.035.6-.025,1.205-.044,1.809-.012.4-.016.8-.062,1.2a2.022,2.022,0,0,1-1.484,1.7,1.383,1.383,0,0,1-.173.011A2.037,2.037,0,0,1,810.665,639.408Zm.427-31.709a1.052,1.052,0,0,0-1.083,1.159c.007,1.4.029,2.8.1,4.207.148,3.2.326,6.388.494,9.584-.048,0-.093.005-.139.007,0,1.5-.014,3.008,0,4.508.049,4.084-.412,4.025,2.532,3.965.412-.008.891-.016,1.447-.013.3,0,.6,0,.9-.029a1.157,1.157,0,0,0,1.165-1.127c.01-.1.014-.2.019-.3.166-3.2.376-6.394.48-9.591.088-2.705.074-5.41.068-8.117-.011-4.441.568-4.381-2.627-4.321-.515.01-1.128.02-1.856.011h-.188C811.968,607.642,811.529,607.661,811.093,607.7Zm46.665,27.127a9.258,9.258,0,0,1-.081-1.5c0-1.307.031-2.612.029-3.917,0-1.695-.015-1.7-1.59-1.815-.4-.028-.807,0-1.2-.061A2.649,2.649,0,0,1,852.388,625c-.179-1.289-.337-2.586-.448-3.883-.287-3.291-.548-6.584-.809-9.879a8.225,8.225,0,0,1,.448-3.257,1.9,1.9,0,0,1,1.675-1.5c.3-.034.6-.022.9-.075,1.961-.349,2.33-.791,2.334-2.761,0-1.707-.028-3.414.009-5.12a5.54,5.54,0,0,1,.286-1.757,1.8,1.8,0,0,1,3.153-.422,5.78,5.78,0,0,1,.6,1.65,2.189,2.189,0,0,1,.014.6v2.711c0,.1-.007.2,0,.3.1,1.17-.3,2.385.337,3.5a31.19,31.19,0,0,0,3.2.661,2.63,2.63,0,0,1,2.4,1.982c.649,2.2,1.512,4.338,1.415,6.721-.109,2.705-.026,5.418-.029,8.131,0,.6.009,1.205-.04,1.8a3.065,3.065,0,0,1-3,3.141c-.6.062-1.2.029-1.805.062-.8.047-1.1.328-1.112,1.08-.018,1.407,0,2.811-.009,4.216a13.619,13.619,0,0,1-.085,1.8,2.207,2.207,0,0,1-1.98,1.948h-.061A2.2,2.2,0,0,1,857.758,634.826Zm-1.593-24.764c-.714,0-1.047.38-1.03,1.146.023,1,.06,2,.143,2.994.192,2.287.417,4.573.628,6.855.009.1.021.2.036.3.144.99.578,1.421,1.568,1.439,1.5.027,3,.018,4.5,0,.772-.01,1.127-.338,1.138-1.051.02-1.3.005-2.6.005-3.9h.013c0-1.1-.037-2.2.011-3.3a9.714,9.714,0,0,0-.616-3.516c-.249-.75-.449-.931-1.3-.947q-1.548-.026-3.1-.025Q857.167,610.053,856.165,610.061Zm-22.948,22.871a4.454,4.454,0,0,1-.3-1.462c-.038-2.31-.03-4.622-.034-6.934a3.789,3.789,0,0,1,.611-1.98c.482-.817.406-.881-.625-.946-.4-.025-.805,0-1.206-.041-1.965-.207-2.8-1.064-3.019-3.086a7.712,7.712,0,0,1-.053-.9,88.015,88.015,0,0,0-.881-10.192,25.127,25.127,0,0,1-.121-2.707q-.011-6.487.018-12.969a11.858,11.858,0,0,1,.244-2.381,1.768,1.768,0,0,1,1.646-1.518,5.765,5.765,0,0,0,.9-.083c1.611-.437,1.849-.768,1.877-2.507.023-1.508.067-3.016.076-4.524a6.782,6.782,0,0,1,.647-2.92,2.486,2.486,0,0,1,2.1-1.506,2,2,0,0,1,2.146,1.294,6.16,6.16,0,0,1,.275,2.967c-.112,1.8-.23,3.608-.33,5.41a.651.651,0,0,0,.8.616,14.187,14.187,0,0,1,1.394-.561,2.889,2.889,0,0,1,3.707,2.524,13.7,13.7,0,0,1,.05,1.805q.007,6.334,0,12.668c-.041,0-.08,0-.121,0,0,4.221.033,8.443-.022,12.666a25.6,25.6,0,0,1-.444,3.572,2.349,2.349,0,0,1-1.751,1.854,13.271,13.271,0,0,1-3.866.491c-.533.042-.729.267-.518.726a7.175,7.175,0,0,1,.567,3.228c-.031,1.908.017,3.819.027,5.729a8.118,8.118,0,0,1-.03,1.2,2.227,2.227,0,0,1-1.875,1.714c-.03,0-.061,0-.091,0A2.088,2.088,0,0,1,833.216,632.932Zm4.417-21.865a14.275,14.275,0,0,0-4.442,4.367c-.186.289-.733.324-.636.86.057.314.683.617,1.249.611a2.494,2.494,0,0,0,1.68-.515c.535-.453,1.072-.908,1.64-1.319a2.4,2.4,0,0,0,1.262-2.2c-.045-.75-.063-1.148-.1-1.547a.37.37,0,0,0-.389-.337A.5.5,0,0,0,837.634,611.068Zm-.14-6.764a19.642,19.642,0,0,0-1.761,1.584,2.571,2.571,0,0,0-.459,1.051.7.7,0,0,0,.156.533.538.538,0,0,0,.462.154c.542-.234,1.049-.547,1.592-.781a1.516,1.516,0,0,0,.933-1.735.458.458,0,0,0,0-.216,2.953,2.953,0,0,0-.388-.758.073.073,0,0,0-.054-.015A.992.992,0,0,0,837.493,604.3Zm.076-5.49c-.735.653-1.424,1.363-2.115,2.07-.038.039.009.193.054.269s.134.1.176.129c.817-.591,1.632-1.166,2.421-1.773.121-.1.121-.348.179-.525a4.106,4.106,0,0,0-.633-.195A.12.12,0,0,0,837.57,598.813Zm-1.256-4.61.134-.332C836.274,593.9,836.015,593.877,836.313,594.2Zm-4.6-2.176a1.962,1.962,0,0,0-.139.617c.026.257.035.561.093.855a3.041,3.041,0,0,0,.227.545,1.944,1.944,0,0,0,.3-.461,9.6,9.6,0,0,0,.348-1.432c.016-.109-.229-.337-.38-.367a.184.184,0,0,0-.036,0A.6.6,0,0,0,831.712,592.027Zm6.691.424a.859.859,0,0,0-.278-.73.737.737,0,0,0-.719.056,2.831,2.831,0,0,0-.866,2.008A1.641,1.641,0,0,0,838.4,592.451Z" transform="translate(-776.638 -563.142)"/>
</svg>