<?xml version="1.0" encoding="utf-8"?><!-- Uploaded to: SVG Repo, www.svgrepo.com, Generator: SVG Repo Mixer Tools -->
<svg fill="#000000" width="800px" height="800px" viewBox="-13.12 0 112 112" xmlns="http://www.w3.org/2000/svg">
  <path id="_currencies" data-name="
currencies" d="M804.234,319.821a3.238,3.238,0,0,1-2.8-3.453,2.686,2.686,0,0,1,.1-.911,14.392,14.392,0,0,0,.643-4.223c.245-2.234.127-2.373-2.183-2.365-.614,0-1.229.068-1.839.023a8,8,0,0,1-1.8-.32,2.12,2.12,0,0,1-1.626-1.986,2.333,2.333,0,0,1,1.607-2.061,11.047,11.047,0,0,1,3.9-.714,4.312,4.312,0,0,0,1.758-.366c.265-.125.421-.673.446-1.04a.961.961,0,0,0-.484-.714,3.705,3.705,0,0,0-1.174-.275c-1.616-.229-3.232-.435-4.848-.655a2.477,2.477,0,0,1-2.373-1.622c-.231-.77.91-1.743,2.362-1.969,1.709-.269,3.431-.455,5.148-.668.915-.109,1.137-.442.692-1.135q-1.659-2.577-3.345-5.136c-2.589-3.916-5.2-7.819-7.779-11.743a22.788,22.788,0,0,1-1.322-2.416,1.965,1.965,0,0,1,.049-1.773,1.9,1.9,0,0,1,2.275-1.087,4.214,4.214,0,0,1,2.294,1.449c1.3,1.572,2.614,3.134,3.811,4.782,1.866,2.562,3.634,5.19,5.445,7.791.175.25.343.507.532.749.5.641,1.041.7,1.5.1,1.108-1.467,2.224-2.93,3.265-4.443,2.777-4.039,5.519-8.1,8.273-12.155.286-.423.538-.871.844-1.279a3.207,3.207,0,0,1,4.338-.945,3.259,3.259,0,0,1,1.316,4.253,13.17,13.17,0,0,1-1.082,1.852c-3.215,4.856-6.441,9.7-9.985,14.331-1.241,1.623-2.423,3.288-3.6,4.96a.873.873,0,0,0-.047.806,1.01,1.01,0,0,0,.8.285c1.314-.142,2.624-.364,3.938-.529a3.627,3.627,0,0,1,2.814.975,2.144,2.144,0,0,1,.351,2.787,3.947,3.947,0,0,1-3.073,1.757c-1.217.058-2.424.336-3.636.5-.578.079-.933.352-.942.974-.008.671.33.944,1.246.956s1.839.005,2.758.005v-.009c1.123,0,2.252-.071,3.37.015a2.614,2.614,0,0,1,2.36,2.714,2.768,2.768,0,0,1-2.454,2.7c-1.118.1-2.247.072-3.373.1-.715.016-1.431,0-2.145.03-1.019.04-1.226.267-1.36,1.233-.34,2.422-.653,4.85-1.077,7.259a3.2,3.2,0,0,1-3.33,2.643A4.461,4.461,0,0,1,804.234,319.821Zm31.588-1.3a3.751,3.751,0,0,1-1.909-2.971,8.292,8.292,0,0,1,2.845-7.1,6.613,6.613,0,0,1,4.116-1.764c1.2-.118,1.484-.6,1.562-1.865.049-.818.086-1.636.074-2.453-.018-1.215-.086-2.432-.133-3.647a2.928,2.928,0,0,0-2.214-.364,4.91,4.91,0,0,1-1.314.017c-.3-.052-.613-.029-.916-.062a2.86,2.86,0,0,1-2.681-2.5,3.052,3.052,0,0,1,1.658-3.046A7.171,7.171,0,0,1,841,291.759c1.283.046,1.752-.226,2.067-1.278a30,30,0,0,0,1.278-6.9A27.451,27.451,0,0,1,845.6,277a9.2,9.2,0,0,1,4.546-5.514,12.274,12.274,0,0,1,5.477-1.817c3.318-.06,6.44.653,8.548,3.749a21.014,21.014,0,0,1,2.721,6.438,11.1,11.1,0,0,1,.183,3.346c-.054,1.269-.831,2.517-1.458,2.482a3.037,3.037,0,0,1-2.466-1.585,16.992,16.992,0,0,1-1.116-2.5c-.486-1.231-.841-2.524-1.415-3.711a4.472,4.472,0,0,0-6.242-1.878,5.627,5.627,0,0,0-2.169,2.1,11.97,11.97,0,0,0-1.594,4.6c-.326,2.32-.438,4.674-.615,7.014-.059.769.25,1.063,1.063,1.129.711.059,1.432.055,2.135.169a5.438,5.438,0,0,1,3.158,1.749,2.5,2.5,0,0,1,.437,3.093,1.932,1.932,0,0,1-1.653,1.189c-.815.066-1.632.075-2.446.133a18.339,18.339,0,0,0-2.123.217,1.466,1.466,0,0,0-1.278,1.5q-.093,2.142-.067,4.286c.049,3.985-.626,3.307,3.563,4.813,2.3.828,4.68,1.436,6.986,2.251a3.809,3.809,0,0,0,3.771-.355,10.154,10.154,0,0,1,1.613-.872,2.316,2.316,0,0,1,2.325.227,1.462,1.462,0,0,1,.8,1.2c.034.611.027,1.228.057,1.839.1,1.918-.982,3.01-2.6,3.732a9.927,9.927,0,0,1-4.645.657,35.54,35.54,0,0,1-9.488-1.536,12.326,12.326,0,0,1-1.753-.535,3.56,3.56,0,0,0-4.63,1,10.7,10.7,0,0,1-4.4,3.242,6.609,6.609,0,0,1-2.274.436A5.216,5.216,0,0,1,835.822,318.519Zm-35.445-50.073a4.121,4.121,0,0,1-.873-2.561c-.05-1.223-.059-2.45-.119-3.676-.047-.895-.419-1.255-1.312-1.375-1.717-.234-3.442-.426-5.147-.724a4.065,4.065,0,0,1-3.53-2.98,2.05,2.05,0,0,1,.938-2.362c.811-.481,1.5-.61,4-.6a16.748,16.748,0,0,1,2.293.342c1.527.376,2.143-.229,2.571-1.451a15.645,15.645,0,0,0,.816-4.8c.058-2.138.257-4.274.346-6.408a1.421,1.421,0,0,0-.383-1.049c-.972-.738-2.015-1.382-3.036-2.061-1.191-.788-2.423-1.519-3.566-2.376a15.1,15.1,0,0,1-1.974-1.918,3.676,3.676,0,0,1-.951-3.109,11.921,11.921,0,0,1,4.969-8.784c1.507-1.046,3.068-2.025,4.663-2.932a3.206,3.206,0,0,0,1.912-3.167,35.117,35.117,0,0,1,.135-4.6,38.837,38.837,0,0,1,.683-3.894c.014-.063.352-.143.493-.089a1.323,1.323,0,0,1,.921,1.122c.1,1.118.13,2.241.17,3.362.054,1.631.06,3.267.15,4.9a1.184,1.184,0,0,0,1.594.957,1.865,1.865,0,0,0,1.409-1.066,16.781,16.781,0,0,0,.606-2.344c.236-1.3.4-2.616.6-3.923a4.525,4.525,0,0,1,1.134-2.458.337.337,0,0,1,.273-.1c.156.06.409.175.413.274.058,1.426.083,2.851.112,4.279.021,1.02,0,2.045.073,3.063a.95.95,0,0,0,.5.675c.754.308,1.568.471,2.318.782a4.982,4.982,0,0,1,3.079,3.568,1.993,1.993,0,0,1-.762,2.176,3.869,3.869,0,0,1-2.244.88,14.956,14.956,0,0,0-2.124.2c-.224.04-.572.418-.555.617.308,3.785-.652,7.514-.456,11.291a1.458,1.458,0,0,0,.839,1.473c3.356,1.5,5.02,4.356,6.038,7.679a11.424,11.424,0,0,1-1.5,9.648,7.108,7.108,0,0,1-2.068,1.779,6.782,6.782,0,0,1-2.144,1.147c-1.462.365-1.854,1.392-2.056,2.661-.275,1.711-.561,3.419-.881,5.12a7.031,7.031,0,0,1-.5,1.432c-.073.164-.271.374-.427.384a.708.708,0,0,1-.5-.306,5.249,5.249,0,0,1-.945-2.865c-.056-1.019-.049-2.043-.1-3.065-.032-.733-.4-1.039-1.193-1.059-1.422-.033-1.906.268-2.215,1.567-.187.788-.186,1.62-.343,2.416-.278,1.394-.589,2.78-.95,4.154-.053.2-.438.369-.7.44a.146.146,0,0,1-.038,0A.8.8,0,0,1,800.377,268.446Zm4-26.372c-.131,0-.305.242-.379.411a1.774,1.774,0,0,0-.073.6,63.126,63.126,0,0,1-.621,8.5,9.482,9.482,0,0,0-.044,1.825.713.713,0,0,0,.836.652c.8-.2,1.57-.428,1.7-1.455.211-1.6.465-3.207.7-4.809-.066-.005-.132-.012-.2-.02,0-1.014.05-2.035-.015-3.044a3.613,3.613,0,0,0-1.082-2.445,1.2,1.2,0,0,0-.779-.217Zm6.436,3.034a.321.321,0,0,0-.167.24c-.083.895-.151,1.8-.223,2.694.024,0,.048.006.071.006,0,.607-.01,1.215,0,1.819a2.386,2.386,0,0,0,.11.59c.025.093.111.238.169.238.177,0,.425,0,.519-.1a3.745,3.745,0,0,0-.208-5.388.409.409,0,0,0-.238-.1A.129.129,0,0,0,810.813,245.108Zm-4.778-21.037a.8.8,0,0,0-.87.665c-.264,2.109-.518,4.216-.716,6.331a15.387,15.387,0,0,0-.011,2.732,3.454,3.454,0,0,0,.529,1.386.949.949,0,0,0,.727.4.849.849,0,0,0,.568-.548,26.955,26.955,0,0,0,.611-6.641c0-1.218.023-2.434-.012-3.648-.012-.464-.378-.679-.811-.679Zm-6.062,1.74a17.22,17.22,0,0,0-3.416,3.855c-.465.678-.478,1.025.059,1.61a10.763,10.763,0,0,0,1.761,1.654,3.119,3.119,0,0,0,1.909.764c.9-.162.422-1.173.563-1.806.262-1.183.464-2.381.688-3.562-.125-.736-.214-1.433-.369-2.118a.763.763,0,0,0-1.2-.4Zm48.2,28.74a25.747,25.747,0,0,1-8.7-5.607,3.041,3.041,0,0,0-3.345-.753,14.743,14.743,0,0,1-4.773.949,2.5,2.5,0,0,1-1.886-.86,1.594,1.594,0,0,1,.123-2.432,9.049,9.049,0,0,1,1.864-1.01c.94-.394,1.917-.695,2.876-1.039,1.509-.539,1.534-.584,1.223-2.2-.076-.4-.155-.8-.247-1.2-.156-.644-.468-.858-1.079-.795-1.521.15-3.042.337-4.566.42a8.253,8.253,0,0,1-2.118-.21,1.311,1.311,0,0,1-.8-1.95,4.238,4.238,0,0,1,1.241-1.311,25.306,25.306,0,0,1,3.047-1.4,13.73,13.73,0,0,1,2.041-.641,4.471,4.471,0,0,0,3.264-2.913,44.423,44.423,0,0,1,4.951-8.787,19.63,19.63,0,0,1,9.342-7.14,10.031,10.031,0,0,1,3.87-.824c.745.021,1.492.015,2.238.01,1.093-.008,2.185-.016,3.271.059a13.352,13.352,0,0,1,6.545,2.378,3.8,3.8,0,0,1,1.659,2.474c.486,2.36-.473,3.281-2.846,2.736-.693-.161-1.355-.444-2.037-.66a22.575,22.575,0,0,0-2.343-.708,25.568,25.568,0,0,0-7.849.96,14.652,14.652,0,0,0-6.92,5.324,22.83,22.83,0,0,0-1.269,2.422c-.148.3.245.9.595.907,1.325.016,2.647.008,3.972.008,0-.041,0-.084,0-.125,1.325.07,2.655.076,3.967.23a1.768,1.768,0,0,1,1.444,2.032,2.414,2.414,0,0,1-1.676,2.322,16.2,16.2,0,0,1-1.758.489c-1.9.4-3.788.828-5.7,1.15a4.353,4.353,0,0,0-2.844,1.628c-.359.456-.489,1.117-.151,1.391a1.634,1.634,0,0,0,1.055.459,28.794,28.794,0,0,0,3.271-.769c1.176-.336,2.329-.755,3.5-1.113a9.774,9.774,0,0,1,4.545-.249,1.483,1.483,0,0,1,1.428,1.656c.016.409,0,.818,0,1.229a1.259,1.259,0,0,1-.927,1.389c-1.851.573-3.694,1.172-5.541,1.745-.681.212-1.378.365-2.056.583-.643.209-.706.632-.1,1.078a17.922,17.922,0,0,0,2.8,1.836,21.43,21.43,0,0,0,7.375,1.879,16.4,16.4,0,0,0,7.77-1.348c1.322-.542,2.612-1.156,3.926-1.718a16.809,16.809,0,0,1,2.282-.868,2.14,2.14,0,0,1,2.692,2.579,6.466,6.466,0,0,1-2.12,3.961,21.868,21.868,0,0,1-9.335,4.364,19.494,19.494,0,0,1-4.295.474A28.9,28.9,0,0,1,848.17,254.55Z" transform="translate(-789.117 -207.855)"/>
</svg>