<?xml version="1.0" encoding="utf-8"?><!-- Uploaded to: SVG Repo, www.svgrepo.com, Generator: SVG Repo Mixer Tools -->
<svg fill="#000000" width="800px" height="800px" viewBox="0 -17.87 105 105" xmlns="http://www.w3.org/2000/svg">
  <path id="gauge" d="M1207.554,473.436c-3.582-.4-6.788-1.559-9.15-4.462a5.2,5.2,0,0,1-1.417-3.861c.256-1.364.544-2.725.764-4.1a17.04,17.04,0,0,1,3.394-7.85c1.883-2.445,3.584-5.033,5.411-7.525.823-1.122,1.758-2.163,2.645-3.239.382-.462.788-.9,1.158-1.369,3.032-3.823,5.958-7.738,9.115-11.454,2.4-2.819,4.513-5.836,6.822-8.707,1.621-2.014,3.417-3.9,5.191-5.785,1.91-2.033,3.911-3.984,5.823-6.016,1.094-1.158,2.085-2.413,3.137-3.609a2.319,2.319,0,0,1,1.518-.864,2.183,2.183,0,0,1,2.669,2.4,3.929,3.929,0,0,1-.845,2.507c-2.435,2.968-3.764,6.557-5.568,9.876-1.33,2.445-2.487,4.989-3.71,7.492-1.971,4.036-3.463,8.264-5.089,12.442-2.094,5.379-3.812,10.912-6.385,16.1-.926,1.872-1.854,3.757-2.947,5.531a13.9,13.9,0,0,0-1.71,3.784c-.829,3.165-2.93,5.387-5.485,7.22a7.707,7.707,0,0,1-4.528,1.534A7.433,7.433,0,0,1,1207.554,473.436Zm2.3-8.285c.1.392.393.363.639.2a3.092,3.092,0,0,0,.87-.758c.128-.192.146-.681.014-.789a1.875,1.875,0,0,0-1.045-.372c-.161-.008-.382.335-.494.56-.08.158-.015.386-.015.8v0A1.137,1.137,0,0,0,1209.853,465.151Zm19.66-40.53c-.335.365-.686.724-.986,1.115-1.757,2.286-3.436,4.638-5.268,6.863-4.367,5.3-8.474,10.816-12.983,16-.894,1.028-1.694,1.985-1.27,2.99a13.233,13.233,0,0,0,.289,3.118,17.253,17.253,0,0,0,4.413,5.927.527.527,0,0,0,.512-.066c.517-.84,1.027-1.69,1.462-2.577.085-.172-.094-.579-.269-.756-.423-.419-.962-.717-1.376-1.14a2.708,2.708,0,0,1,.409-4.355,16.234,16.234,0,0,1,3.889-2.2,4.937,4.937,0,0,0,3.273-3.486c.473-1.313.958-2.619,1.477-3.913,1.037-2.587,2.245-5.114,3.116-7.751,1.071-3.224,2.409-6.32,3.768-9.418.051-.115-.126-.329-.2-.5A1.018,1.018,0,0,0,1229.513,424.621Zm-11.759,28.852c.068.062.14.176.2.171a2.971,2.971,0,0,0,.469-.136l-.272-.3C1218,453.308,1217.878,453.392,1217.754,453.473Zm31.584,18.768a3.669,3.669,0,0,1-1.043-.565,3.169,3.169,0,0,1-1.417-3.368,3.211,3.211,0,0,1,2.362-2.466,20.1,20.1,0,0,1,3.524-.587c.788-.088,1.59-.018,2.936-.018.149-.009.843-.07,1.537-.094a7.4,7.4,0,0,1,3.731.9,2.7,2.7,0,0,1,1.529,2.4,2.769,2.769,0,0,1-1.516,2.714,9.3,9.3,0,0,1-3.981,1.149,28.8,28.8,0,0,0-3.853.376,5.88,5.88,0,0,1-.968.079A9.319,9.319,0,0,1,1249.338,472.241Zm-77.7-1.13c-1.49-.053-2.984-.015-4.705-.015-1.654-.1-3.549-.109-5.412-.353a4.544,4.544,0,0,1-3.979-4.145,4.431,4.431,0,0,1,4.177-5.094,40.334,40.334,0,0,1,9.2.545,6.509,6.509,0,0,1,4.312,3.335,1.8,1.8,0,0,1,.231,1.138,5.982,5.982,0,0,1-1.7,3.712,2.832,2.832,0,0,1-2.01.879Zm76.324-20.079c-.006-.1,0-.2,0-.294a2.9,2.9,0,0,1,.833-2.171,22.654,22.654,0,0,1,7.832-5.3c1.423-.553,3.555.677,3.617,2.2.041,1.094.346,2.123.4,3.2a1.935,1.935,0,0,1-.781,1.832c-1.311.887-2.633,1.77-4,2.562-.852.492-1.82.781-2.705,1.221a4.137,4.137,0,0,1-1.83.466C1249.425,454.748,1248.106,453.114,1247.96,451.032Zm-77.5-6.153c-1.049-.167-2.622-.38-4.175-.681a3.7,3.7,0,0,1-1.273-.656c-.65-.437-1.26-.938-1.894-1.4a3.57,3.57,0,0,1-1.066-4.24,2,2,0,0,1,.806-.836c2.225-1.1,4.5-1.544,6.79-.2,1.365.807,2.686,1.691,4,2.58a2.813,2.813,0,0,1,1.337,1.887,3.133,3.133,0,0,1-2.805,3.537,3.747,3.747,0,0,1-.459.023C1171.428,444.9,1171.052,444.879,1170.464,444.879Zm70.96-10.051a2.685,2.685,0,0,1-.359-2.552,4.876,4.876,0,0,1,.365-.818,34.435,34.435,0,0,1,5.82-7.921,5.807,5.807,0,0,1,1.18-.907c1.607-.868,3.472.305,3.284,2.619-.075.28-.272,1.151-.552,1.993-.96,2.88-2.749,5.3-4.432,7.761a2.913,2.913,0,0,1-2.456,1.357A3.543,3.543,0,0,1,1241.425,434.828Zm-61.115-9.823a13.793,13.793,0,0,1-2.156-2.825,6.969,6.969,0,0,1-.973-5.078,2.824,2.824,0,0,1,2.033-2.271c2.035-.68,3.328-.725,4.739,1.7a32.57,32.57,0,0,0,3.49,5.171,7.6,7.6,0,0,1,1.144,2.711,2.4,2.4,0,0,1-1.349,2.408,6.861,6.861,0,0,1-1.138.355c-.485.1-.984.128-1.231.155l-.164,0A5.765,5.765,0,0,1,1180.31,425.005Zm22.455-6.809a1.964,1.964,0,0,1-1.563-1.58,10.63,10.63,0,0,1,.208-4.7,18.105,18.105,0,0,0,.525-3.5,6.193,6.193,0,0,1,.269-1.452,2.436,2.436,0,0,1,1.443-1.776,11.187,11.187,0,0,0,1.343-.627c1.214-.687,2.31-.153,3.377.348a1.75,1.75,0,0,1,.66.939,13.8,13.8,0,0,1,.884,4.977c-.288,1.656-.561,3.313-.869,4.963a2.609,2.609,0,0,1-1.634,1.97,7.265,7.265,0,0,1-2.96.654A6.862,6.862,0,0,1,1202.765,418.2Z" transform="translate(-1157.5 -404.23)"/>
</svg>