<?xml version="1.0" encoding="utf-8"?><!-- Uploaded to: SVG Repo, www.svgrepo.com, Generator: SVG Repo Mixer Tools -->
<svg fill="#000000" width="800px" height="800px" viewBox="-0.58 0 100 100" xmlns="http://www.w3.org/2000/svg">
  <path id="_gears" data-name="
gears" d="M1190.171,838.336a1.469,1.469,0,0,1-1.321-1.239,3.114,3.114,0,0,1-.086-.645,4.472,4.472,0,0,0-1.266-3.842,2.907,2.907,0,0,1-.564-2.775c.044-.212.112-.42.155-.634.171-.837.589-1.855-.426-2.31-.882-.4-1.642.346-2.26.938a49.785,49.785,0,0,1-6.348,5.091c-1.554,1.064-2.486.993-3.759-.26-1.938-1.908-3.836-3.855-5.745-5.792a12.918,12.918,0,0,1-.867-.977,8.722,8.722,0,0,1-1.595-3.538,30.839,30.839,0,0,1,1.653-2.753,19.321,19.321,0,0,1,1.823-1.862c1.289-1.328,2.593-2.638,3.836-4.005a2.085,2.085,0,0,0,.474-2.666,3.919,3.919,0,0,1-.24-.944.888.888,0,0,0-.953-.7c-1.624.113-3.245.276-4.865.411-1.3.108-2.6.217-3.9.3a1.535,1.535,0,0,1-1.553-.93,13.305,13.305,0,0,1-1.59-5.274c-.232-2.922-.175-5.869-.2-8.8-.006-.815.336-1.145,1.114-1.375a7.814,7.814,0,0,1,3.537-.272,30.3,30.3,0,0,0,4.221.309c.812.013,1.892.392,2.306-.667.55-1.4,1.176-2.832-.021-4.3-1.367-1.677-2.646-3.428-3.942-5.168a9.465,9.465,0,0,1-1.02-1.664,2.684,2.684,0,0,1,.368-3.027c2.492-3.184,5.625-5.738,8.367-8.673a6.5,6.5,0,0,1,1.9-1.225,1.851,1.851,0,0,1,2.319.642,8.99,8.99,0,0,1,1.057,2.007c.788,2.328,2.425,4.1,3.854,6a.847.847,0,0,0,1.532-.238,4.212,4.212,0,0,0,.208-2.219c-.256-1.936-.343-3.9-.472-5.846a1.851,1.851,0,0,1,1-1.9c.381-.207.715-.495,1.074-.739,3.249-2.2,3.249-2.206,7.212-2.247.981-.01,1.96,0,2.941,0v-.087c1.632,0,3.266-.031,4.9.009a2.911,2.911,0,0,1,2.947,3.372c-.141,2.6-.173,5.212-.168,7.82a1.645,1.645,0,0,0,1.511,1.822,1.448,1.448,0,0,0,1.481-.45c.743-.938,1.393-1.952,2.163-2.864a25.958,25.958,0,0,1,2.669-2.831c1.515-1.328,2.1-.96,3.526-.158a7.62,7.62,0,0,1,1.679,1.527c1.408,1.513,2.71,3.132,4.194,4.566a15.277,15.277,0,0,1,3.406,5.033,3.46,3.46,0,0,1-.523,3.886,25.559,25.559,0,0,1-3.017,2.96c-.729.65-1.562,1.18-2.3,1.817a1.106,1.106,0,0,0-.365.819c.053.518.547.61.977.658a3.6,3.6,0,0,0,.979-.008,16.847,16.847,0,0,1,7.682.651c.823.246,1.719.236,2.563.43a1.531,1.531,0,0,1,1.237,1.682,4.943,4.943,0,0,1-.031,1.3c-.769,3.114-.39,6.278-.464,9.423-.022.868.006,1.742-.056,2.609-.077,1.093-.517,1.481-1.616,1.674a45.17,45.17,0,0,1-9.427.548,6.248,6.248,0,0,0-1.6.086c-.168.04-.365.519-.325.761a2.228,2.228,0,0,0,.513.811c1.867,2.539,3.74,5.072,5.592,7.621a8.078,8.078,0,0,1,.8,1.416,1.725,1.725,0,0,1-.188,1.851c-.742.935-1.536,1.828-2.3,2.746-1.947,2.336-3.869,4.694-5.849,7a2.477,2.477,0,0,1-1.336.765,3.142,3.142,0,0,1-3.577-1.56,45.233,45.233,0,0,0-3.606-4.593,1.228,1.228,0,0,0-.879-.25c-.539.021-1.072.2-1.611.208-1.812.035-2.136.017-2.1,2.345.017,1.306.078,2.612.089,3.916a22.747,22.747,0,0,1-.078,2.61,1.9,1.9,0,0,1-1.805,1.924,49.88,49.88,0,0,1-6.662.453A46.938,46.938,0,0,1,1190.171,838.336Zm9.567-14.376a11.235,11.235,0,0,1-.234,1.931c-.528,2.215-1.108,4.417-1.653,6.628a.88.88,0,0,0,.677.952c.869.053,1.74.1,2.611.115s1.183-.266,1.2-1.129c.042-2.177.065-4.352.08-6.53a1.953,1.953,0,0,1,.858-1.661,15.2,15.2,0,0,1,5.585-2.59,3.912,3.912,0,0,1,4.467,1.774c.826,1.275,1.543,2.621,2.365,3.9.1.158.563.146.846.11a.915.915,0,0,0,.535-.35,23.178,23.178,0,0,1,4.539-4.641c.414-.31.221-.805-.036-1.17-1.761-2.482-3.555-4.941-5.291-7.442a16.748,16.748,0,0,1-1.6-2.811c-.615-1.4-.431-1.91.733-2.8.343-.262.92-.383,1.062-.711.811-1.877,2.441-1.958,4.1-2,.612-.014,1.225-.012,1.837-.01.914,0,1.825.008,2.734-.044a15.646,15.646,0,0,0,2.865-.519.94.94,0,0,0,.558-.691c-.008-2.174-.053-4.352-.155-6.524a1.264,1.264,0,0,0-1.075-1.091,7.012,7.012,0,0,0-1.619-.149c-1.526,0-3.049.073-4.571.047a16.011,16.011,0,0,1-2.915-.267,1.541,1.541,0,0,1-1.393-1.578,3.2,3.2,0,0,0-1.039-2.9,1.3,1.3,0,0,1-.055-1.8,8.912,8.912,0,0,1,1.084-1.214c1.537-1.377,3.1-2.726,4.651-4.088a1.089,1.089,0,0,0,.262-1.458,25.716,25.716,0,0,0-4.183-5.4c-1.206-1.256-1.474-1.278-2.647-.19a12.718,12.718,0,0,1-1.414,1.351,4.858,4.858,0,0,0-2.2,2.291,1.4,1.4,0,0,1-1.343.777c-.76.04-1.521.045-2.283.044h-.233c-1.242,0-2.471.005-2.958-1.6-.083-.277-.674-.5-1.059-.565a1.992,1.992,0,0,1-1.693-1.724,15.007,15.007,0,0,1-.332-5.825,18.188,18.188,0,0,0,.133-2.268,1.216,1.216,0,0,0-.987-1.133q-4.247-.031-8.489-.01a1.235,1.235,0,0,0-1.2,1.3,24.972,24.972,0,0,0,.14,2.592c.141,1.624.365,3.244.454,4.87.078,1.437-.616,2.153-2.1,2.372a1.588,1.588,0,0,1-.326.019,2.916,2.916,0,0,0-3.15,1.8c-.367.85-1.192.871-1.968.709-.416-.086-.795-.473-1.2-.483-2.222-.064-3.548-1.422-4.676-3.1-.241-.36-.48-.724-.746-1.069-.47-.608-1.062-.613-1.657-.031-.931.91-1.865,1.816-2.789,2.732a.7.7,0,0,0,.085,1.112c.654.572,1.366,1.075,2.036,1.629.919.763,1.841,1.526,2.723,2.331a1.6,1.6,0,0,1,.526,1.786,7.4,7.4,0,0,0-.22,5.393,4.047,4.047,0,0,1-.882,3.349,2.279,2.279,0,0,1-2.2,1.064c-.432-.014-.858-.179-1.29-.193q-3.748-.117-7.5-.188c-.517-.008-.714.336-.511.878.184.486.307,1.1,1.081.743.442-.2.928-.179,1.14.251.419.847.941.686,1.57.318a1.272,1.272,0,0,1,.615-.191.889.889,0,0,1,.579.2.605.605,0,0,1,.144.536c-.724,1.7-1.486,3.379-2.2,5.076a.613.613,0,0,0,.231.52.662.662,0,0,0,.577.064,2.148,2.148,0,0,0,.724-.619c.314-.442.512-.967.838-1.4.655-.858,1.328-1.709,2.066-2.5a1.366,1.366,0,0,1,1.751-.333,1.259,1.259,0,0,1,.158,1.508,22.146,22.146,0,0,1-1.069,2.006.653.653,0,0,0,.5.954c.318.077.644.1.966.157a2.561,2.561,0,0,1,2.057,1.848,12.3,12.3,0,0,1,.683,7.035,1.838,1.838,0,0,1-1.143,1.463,4.622,4.622,0,0,0-1.43.745c-.249.227-.293.683-.411,1.056.185-.017.37-.031.553-.056.391-.055.848-.506,1.154-.03a1.963,1.963,0,0,1,.191,1.219c-.058.532-.317,1.039-.409,1.57-.318,1.924-.655,3.849-.875,5.788a4.473,4.473,0,0,0,.364,1.872c.078.226.575.532.736.464a7.1,7.1,0,0,0,1.646-1.007c.421-.344-.006-.777-.029-1.174a7.1,7.1,0,0,1,.066-2.246,41.317,41.317,0,0,1,1.4-4,1.939,1.939,0,0,1,.612-.741c.123-.1.379-.064.569-.041.075.009.2.165.186.225-.391,1.693-.8,3.38-1.2,5.073-.1.4-.326,1.04-.157,1.186.547.482.929-.187,1.279-.472.928-.755,1.741-1.651,2.683-2.387a4.266,4.266,0,0,0,1.72-3.006,3.918,3.918,0,0,1,1.255-2.58c.144-.122.462-.225.583-.151.24.148.582.448.556.647-.086.743-.313,1.47-.473,2.207-.217,1.005-.069,1.319.845,1.783a8.966,8.966,0,0,1,1.178.559,3.131,3.131,0,0,1,1.561,3,11.636,11.636,0,0,0,.264,2.556c.023.159.225.292.343.437a1.1,1.1,0,0,0,.194-.261c.526-1.537,1.034-3.083,1.582-4.613a2.092,2.092,0,0,1,.572-.773.873.873,0,0,1,.561-.086c.08,0,.184.117.226.205.1.19.25.415.215.595-.482,2.559-.989,5.114-1.5,7.667a1.965,1.965,0,0,1-1.465,1.582c-.267.083-.7.234-.383.643a1.2,1.2,0,0,0,.782.5c.639,0,1.274-.217,1.913-.232a1.84,1.84,0,0,0,1.966-1.725c.268-1.383.583-2.763.981-4.114a36.533,36.533,0,0,1,1.336-3.656c.078-.189.533-.27.82-.294h0C1199.531,823.443,1199.747,823.787,1199.738,823.96Zm-25.3-6.4c-.751.895-1.441,1.84-2.2,2.727a1.681,1.681,0,0,0,.1,2.319,1.037,1.037,0,0,0,.448.3c.042.02.2-.108.233-.2q.957-2.649,1.9-5.305C1174.737,817.439,1174.531,817.451,1174.441,817.559Zm25.826-.7a1.966,1.966,0,0,0-2.038-.613,12.4,12.4,0,0,1-11.036-3.443,9.515,9.515,0,0,1-1.118-1.183c-3.437-4.564-3.644-5.087-2.989-10.81.368-3.219.512-3.2,2.165-6.016,1.154-1.972,3.035-3.029,4.944-4.058a3.044,3.044,0,0,1,1.271-.208c.759-.031,1.519-.008,2.492-.008,2.808-.329,5.608.627,8.325,1.681a14,14,0,0,1,7.72,7.074c.359.739,1.145.988,1.4,1.672.258.7.292,1.486.5,2.21a9.922,9.922,0,0,1-1.078,7.843c-1.175,2.1-2.621,3.969-5.141,4.7-1.241.358-2.393,1.014-3.6,1.478a2.132,2.132,0,0,1-.755.149A1.361,1.361,0,0,1,1200.267,816.857Zm-11.075-19.877c-.226.08-.365.518-.467.816a17.664,17.664,0,0,0-.579,7.43,5.688,5.688,0,0,0,1.82,3.732c1.717,1.525,3.507,2.982,6.067,2.607a10.975,10.975,0,0,1,1.418-.007c2.2.144,4.48.018,6.416-1.466.943-.723,1.79-1.57,2.7-2.344a1.612,1.612,0,0,0,.283-2.518c-.677-.831-.47-1.878-.759-2.8a4.821,4.821,0,0,0-1.1-2.318,17.635,17.635,0,0,0-11.4-4.965q-.088,0-.174,0C1191.749,795.142,1190.639,796.464,1189.192,796.981Zm54.22-19.485c-.376-.779-.651-1.611-1.051-2.377a7.325,7.325,0,0,0-1.109-1.572,1.048,1.048,0,0,0-1.827.367c-.437.993-.765,2.03-1.166,3.038-.444,1.133-1.135,1.406-2.34.954-1.524-.571-3.046-1.153-4.572-1.722-1.343-.5-1.517-.736-1.472-2.122.01-.324.075-.645.126-1.047-.433-1.057.122-2.039.459-3.063.121-.366-.431-.882-.818-.773-1.569.437-3.137.878-4.7,1.35a1.141,1.141,0,0,1-1.421-.427,18.23,18.23,0,0,1-2.522-5.978,1.457,1.457,0,0,1,.36-1.159,6.391,6.391,0,0,1,1.581-1.1c1.055-.555,2.167-1.008,3.211-1.58a3.064,3.064,0,0,0,.86-.95,1.01,1.01,0,0,0-.438-1.376c-1.041-.3-2.108-.527-3.147-.841-1.706-.512-2.191-1.44-1.738-3.228a8.679,8.679,0,0,1,.525-1.88c.634-1.233.281-3.129,1.7-3.7,1.221-.495,2.387.8,3.621,1.176.309.094.637.333.918.285a1.96,1.96,0,0,0,1.08-.546,2.258,2.258,0,0,0,.337-2.164c-.3-1.156-.577-2.317-.892-3.468a1.261,1.261,0,0,1,.5-1.428,12.278,12.278,0,0,1,1.865-1.283c1.257-.637,2.562-1.187,3.858-1.75a4.87,4.87,0,0,1,.944-.239,1.124,1.124,0,0,1,1.434.937c.059.54,0,1.1.114,1.625.2.95.455,1.89.733,2.822a.717.717,0,0,0,1.093.243,5.966,5.966,0,0,0,1.076-1.188,8.479,8.479,0,0,0,.545-1.524c.867-2.435,1.321-2.745,3.833-2.045a49.25,49.25,0,0,1,5.187,1.9,1.207,1.207,0,0,1,.581,1.665c-.515,1.2-1.107,2.362-1.614,3.563-.108.253-.113.75.041.869.4.313.979.742,1.372.644a7.7,7.7,0,0,0,2-1.067c2.144-1.285,2.892-1.6,4.05,1.367.55,1.416,1.209,2.792,1.744,4.214.575,1.531.321,2.164-1.059,2.966-.471.272-.97.492-1.448.747-1.305.695-1.323.917-.205,1.67.989.666,1.985,1.329,2.932,2.054a1.686,1.686,0,0,1,.674,2.283c-.647,1.615-1.34,3.211-2.052,4.8-.661,1.48-.675,2.038-3,1.267q-2.01-.665-4.035-1.3c-.349-.109-.832.42-.75.814a10.132,10.132,0,0,0,.332,1.255c.142.408.355.792.518,1.2,1.759,4.395,1.849,3.394-1.989,5.539-1.133.635-2.285,1.24-3.454,1.806a1.007,1.007,0,0,1-.436.1A1.064,1.064,0,0,1,1243.412,777.5Zm-8.242-3.281c-.032.119.188.392.342.444a.577.577,0,0,0,.531-.165,5.58,5.58,0,0,0,.976-2.817C1235.808,772.074,1235.451,773.127,1235.17,774.214Zm-.791-3.635a3.61,3.61,0,0,0-1.243,2.8,1.187,1.187,0,0,0,.315.512c.027.031.234-.024.285-.092.609-.829,1.2-1.669,1.8-2.5a5.761,5.761,0,0,0-.663-.857.135.135,0,0,0-.087-.022A.655.655,0,0,0,1234.379,770.579Zm10.523-5.333c-.031,2.455.36,4.935-.524,7.336-.062.166.3.536.531.737a.561.561,0,0,0,.549.031,2.828,2.828,0,0,0,.448-.8c.034-.072-.067-.194-.1-.3a10.574,10.574,0,0,1,.336-6.938,4.075,4.075,0,0,0,.035-1.517C1245.233,763.8,1244.913,764.452,1244.9,765.246Zm-7.8,6.3c.529-.211.434-.72.512-1.145A1.321,1.321,0,0,0,1237.1,771.546Zm.283-2.119c.094.263.214.518.327.775a.742.742,0,0,0,.346-1.029,6.941,6.941,0,0,0-.349-.772C1237.188,768.6,1237.235,769,1237.385,769.427Zm4.879-.574a1.129,1.129,0,0,0,0,.326,4.285,4.285,0,0,0,.334.872c.13.214.7-.4.756-.891.094-.757.16-1.515.231-2.272.042-.431.042-.86-.38-1.124-.294-.188-.858.516-.888,1.132-.021.434,0,.87,0,1.3h-.05C1242.264,768.418,1242.266,768.636,1242.264,768.853Zm4.247.609.106-.172-.167-.022Zm-6.771-2.314c-.009.625.036,1.251.08,1.874.007.094.1.18.161.27a.9.9,0,0,0,.167-.246c.1-.407.171-.817.222-1.065a4.354,4.354,0,0,0-.051-.8,2.64,2.64,0,0,0-.284-.544C1239.933,766.809,1239.742,766.977,1239.74,767.148Zm-7.534-1.206c-.1.167-.275.419-.216.536a3.28,3.28,0,0,0,2.366,1.885,4.665,4.665,0,0,0,.613-.4c.045-.04.014-.255-.05-.3-.81-.623-1.627-1.23-2.453-1.83a.048.048,0,0,0-.028-.007A.352.352,0,0,0,1232.206,765.942Zm5.622,1.534c-.035.268-.049.54-.067.812.452-.1.489-.453.406-.856-.015-.082-.12-.148-.184-.22A.826.826,0,0,0,1237.828,767.476Zm-12.289-1.484a5.457,5.457,0,0,0-.615,1.4c-.034.142.365.526.6.567.525.091.955-.383,1-1.073-.053-.183-.119-.486-.228-.774a.469.469,0,0,0-.436-.292A.357.357,0,0,0,1225.539,765.992Zm2.676.644c0,.081.315.154.482.229a3.1,3.1,0,0,0,.257-.7c.008-.055-.3-.158-.562-.283A2.873,2.873,0,0,0,1228.215,766.636Zm19.318-13.828c.036,1.518.029,3.039.008,4.559-.017,1.045-.461,2.181.826,2.875.138.075.087.572.059.865-.084.863-.238,1.722-.289,2.586a10.98,10.98,0,0,0,.122,1.586c.859.084.787-.8,1.2-1.184,1.027-.969.607-2.488,1.217-3.645a.717.717,0,0,0-.135-.6c-.511-.682-.742-1.611-1.636-1.967a1.523,1.523,0,0,1-.9-1.585,10.829,10.829,0,0,1,.588-4.816c.218-.5-.127-.852-.516-1.046a5.579,5.579,0,0,0-1.141-.338c.035.957-1,1.265-1.292,2.018a.8.8,0,0,0,.085.607c.05.088.321.076.484.056.089-.011.156-.148.248-.205a1.738,1.738,0,0,1,.757-.316C1247.434,752.257,1247.524,752.435,1247.532,752.809Zm-15.326,1.112c-.273.08-.693.289-.715.481-.231,2.127-.4,4.261-.6,6.657.112.809.246,1.865.426,2.914.022.131.3.3.464.306s.464-.158.486-.285a14.98,14.98,0,0,0,.32-2.516c0-1.709-.261-3.411.452-5.081a2.227,2.227,0,0,0-.324-2.149.829.829,0,0,0-.473-.332A.121.121,0,0,0,1232.206,753.92Zm-8.062,9.91a.392.392,0,0,0,.086.265c.043.065.158.151.2.134.465-.222.846-.516.827-1.089a1.838,1.838,0,0,0-.186-.01A.868.868,0,0,0,1224.144,763.83Zm28.288-3.325a14.6,14.6,0,0,0-.456,1.813,12.745,12.745,0,0,0,.085,1.322,2.48,2.48,0,0,0,.257.573c.155-.121.4-.21.456-.366.353-1.006.7-2.019.962-3.05.045-.175-.31-.6-.541-.651a.342.342,0,0,0-.079-.008A.882.882,0,0,0,1252.432,760.505Zm-23.57.286a.726.726,0,0,0-.476.363c-.226.581-.392,1.189-.5,1.508a3.408,3.408,0,0,0,0,.625c.09.3.2.587.3.879.3-.267.774-.492.85-.813a10.133,10.133,0,0,0,.171-2.2.546.546,0,0,0-.347-.359Zm17.455,1.136c-.048.594-.057,1.193-.077,1.79.645-.356.513-1.018.562-1.6a1.511,1.511,0,0,0-.182-.56C1246.513,761.683,1246.327,761.8,1246.316,761.927Zm-9.022-13.044a1.816,1.816,0,0,0-.763.482.844.844,0,0,0-.092.622,13.129,13.129,0,0,1,.464,2.52c-.031,1.063-1.23,1.409-1.744,2.231-1.169,1.873-.909,5.275.706,6.637a7.279,7.279,0,0,0,6.382,1.583,2.34,2.34,0,0,0,1.344-.819c1.2-1.676,2.42-3.38,1.444-5.646a4.5,4.5,0,0,1-.184-1.226,1.967,1.967,0,0,1-.981-1.508c-.128-.626-.05-1.292-.136-1.933a3.187,3.187,0,0,0-.4-.85c-.188.207-.385.407-.556.628-.059.077-.045.208-.07.311-.122.484-.524.872-.913.666-.962-.507-1.852-.138-2.777-.009q-1.241.174-1.288-1.011c-.03-.756.013-1.516-.032-2.271a.669.669,0,0,0-.394-.411Zm-11.926,14.168c.208-.022.493.014.172-.38Zm30.007-1.534q-.258.549-.461,1.124a.3.3,0,0,0,.149.263c.254.069.795-.8.765-1.245,0-.089-.118-.171-.182-.258C1255.552,761.439,1255.406,761.45,1255.375,761.517Zm-26.767-5.547c-.006.062.119.139.182.21.094-.139.243-.27.264-.42.017-.1-.146-.229-.262-.39A3.817,3.817,0,0,0,1228.608,755.97Zm21.655-3.275c-.03.325-.038.651-.055,1.007a2.9,2.9,0,0,0,.078.937c.1.25.391.427.616.614.031.024.172-.073.254-.125.391-.245.172-.558.08-.848-.159-.511-.319-1.026-.511-1.526-.055-.145-.23-.244-.35-.363A1.228,1.228,0,0,0,1250.263,752.7Zm-5.251,2.511a.328.328,0,0,0,.1-.029c.05-.026.068-.115.1-.177Zm7.948-3.971c-.049.209-.073.425-.141.837a10.534,10.534,0,0,0,.344,1.371.879.879,0,0,0,1.048.548c.582-.087,1.129-.553,1.129-1a2.59,2.59,0,0,0-1.04-2.254.632.632,0,0,0-.367-.1A1.026,1.026,0,0,0,1252.96,751.235Zm-18.384,2.252c-.015.067.116.162.182.245.071-.075.218-.159.207-.221a3.064,3.064,0,0,0-.177-.561A3.3,3.3,0,0,0,1234.576,753.487Zm4.75-6.98a.587.587,0,0,0-.228.539,14.242,14.242,0,0,1,.75,3.779,1.053,1.053,0,0,0,.152.277c.083-.072.211-.13.239-.216.255-.926.49-1.858.689-2.612.036-.858,0-1.525-.744-1.811a.909.909,0,0,0-.326-.054A1.6,1.6,0,0,0,1239.326,746.507Zm-13.182,4.472.149.1.026-.146Zm19.621-1.608a.3.3,0,0,0,.063.268c.3.107.6.192.9.28-.2-.258-.394-.518-.609-.76a.009.009,0,0,0-.007,0A1.011,1.011,0,0,0,1245.765,749.371Zm-3.4-1.121a.877.877,0,0,0,.6.952c.553.163,1.133-.391,1.173-1.1a.793.793,0,0,0-.791-.762q-.043,0-.085,0A.857.857,0,0,0,1242.361,748.249Zm-6.4-1.842a.727.727,0,0,0-.415.355c-.044.093.1.273.2.532l.571-.589c-.115-.1-.256-.3-.344-.3Zm7.259-1.293.511.189c.086-.047.174-.092.257-.138a3.269,3.269,0,0,0-.519-.188h-.014C1243.39,744.976,1243.3,745.068,1243.224,745.114Zm-8.363-1.476a.817.817,0,0,0-.325,1.1c.055.133.279.2.585.39a4.782,4.782,0,0,0,.428-1.119c.012-.092-.451-.379-.639-.379A.1.1,0,0,0,1234.861,743.638Zm8.969-1.191c-.041.066.113.362.227.4a4.439,4.439,0,0,0,.825.131,6.525,6.525,0,0,0,.681-.106.457.457,0,0,0,.229-.2.192.192,0,0,0-.016-.191,1.517,1.517,0,0,0-1.064-.35A1.072,1.072,0,0,0,1243.831,742.447Z" transform="translate(-1160.576 -738.856)"/>
</svg>