<?xml version="1.0" encoding="utf-8"?><!-- Uploaded to: SVG Repo, www.svgrepo.com, Generator: SVG Repo Mixer Tools -->
<svg fill="#000000" width="800px" height="800px" viewBox="0 -0.97 91.851 91.851" xmlns="http://www.w3.org/2000/svg">
  <path id="globe" d="M1066.894,261.028a57.658,57.658,0,0,1-3.243,20c-.314.951-.621,1.906-.931,2.857a42.649,42.649,0,0,1-6.489,11.841,26.075,26.075,0,0,1-11.17,8.885,59.363,59.363,0,0,1-14.24,3.656,61.78,61.78,0,0,1-9.615.536,52.954,52.954,0,0,1-21.052-4.5,47.234,47.234,0,0,1-15.584-11.159,28.313,28.313,0,0,1-3.273-5.016c-.817-1.379-1.434-2.879-2.252-4.259a25.078,25.078,0,0,1-2.7-8.552,37.53,37.53,0,0,1-.766-7.183,9.369,9.369,0,0,0-.219-1.788,8.736,8.736,0,0,1,.176-5.045,2.654,2.654,0,0,0,.127-.891c.205-4.966,2.2-9.32,4.666-13.495a38.564,38.564,0,0,1,2.4-3.452,53.687,53.687,0,0,0,3.583-5.177c2.427-4.163,6.009-7.242,9.933-9.928,2.07-1.418,4.253-2.672,6.357-4.043a33.946,33.946,0,0,1,6.681-3.439,19.773,19.773,0,0,1,5.242-1.271c4.586-.358,9.172-1.155,13.8-.358a13.953,13.953,0,0,0,3.01.136,35.273,35.273,0,0,1,7.783.718,13.826,13.826,0,0,1,7.492,3.536c2.461,2.358,5.188,4.439,7.776,6.668a38.89,38.89,0,0,1,8.174,9.581,28.138,28.138,0,0,1,3.019,8.793A51.1,51.1,0,0,1,1066.894,261.028Zm-66.438-12.656c.123-1.358.109-1.326-1.265-1.919-2.4-1.034-4.775-2.11-7.16-3.172-.779-.348-.933-.3-1.574.317a27.9,27.9,0,0,0-4.853,6.864,32.5,32.5,0,0,0-3.094,9.7,9.855,9.855,0,0,0-.1,1.8,1.321,1.321,0,0,0,1.217,1.464,54.39,54.39,0,0,0,8.312,1.336c1.7.1,3.4.285,5.106.409a5.709,5.709,0,0,0,1.5-.037.948.948,0,0,0,.584-.569,4.429,4.429,0,0,0,.111-1.191,64.987,64.987,0,0,1,.516-8.418C1000.1,252.779,1000.23,250.568,1000.456,248.372Zm14.262,17.575c0-.055,0-.11.008-.166,1.509,0,3.017,0,4.527,0,.5,0,1.006,0,1.508-.03a.906.906,0,0,0,.9-.972,22.911,22.911,0,0,0-.105-2.713,114.18,114.18,0,0,1-.655-11.736c0-.1-.007-.2-.017-.3-.061-.61-.356-.969-.9-1.017-2.1-.183-4.2-.378-6.3-.518a40.6,40.6,0,0,1-6.3-.559,7.456,7.456,0,0,0-1.8-.078.771.771,0,0,0-.8.73c-.109,1-.128,2.01-.287,3a69.182,69.182,0,0,0-.445,12.64c.022.911.3,1.143,1.352,1.205C1008.5,265.619,1011.608,265.778,1014.718,265.947ZM983.531,268.3c-.918-.066-1.209.348-.822,1.309.338.836.758,1.637,1.106,2.469.146.354.4.856.259,1.1a2.822,2.822,0,0,0,.221,2.579c.875,2.241,1.738,4.5,2.807,6.646a28.138,28.138,0,0,0,5.041,7.068,1.353,1.353,0,0,0,1.617.391c2.228-.9,4.455-1.818,6.716-2.638,1.058-.386,1.332-.755,1.1-1.759a109.525,109.525,0,0,1-2.223-14.238c-.067-.712-.37-.959-1.192-1.058-3.182-.383-6.367-.75-9.547-1.149C986.928,268.809,985.246,268.543,983.531,268.3Zm58.413-7.071h.069c-.127-2.005-.311-4.007-.366-6.013a43.148,43.148,0,0,0-.693-6.883c-.166-.875-.332-1.017-1.187-.795a41.7,41.7,0,0,1-11.3,1.5c-.6-.012-1.207.015-1.811-.005-1.291-.044-1.463.451-1.4,1.388q.409,6.159.84,12.318c.035.5.121,1,.195,1.492.145.952.352,1.181,1.393,1.108,3.5-.246,7-.534,10.5-.83,1-.083,1.992-.227,2.982-.38a.834.834,0,0,0,.768-.79C1041.968,262.631,1041.944,261.927,1041.944,261.225Zm-19.136,19.1c-.235-3.183-.434-5.884-.635-8.586a1.951,1.951,0,0,0-.045-.3.855.855,0,0,0-.82-.729c-1.1-.037-2.209-.019-3.313-.045-3.514-.08-7.031-.079-10.537-.28-3.717-.214-3.607-.3-3.164,3.255.445,3.578,1.129,7.126,1.709,10.688a.937.937,0,0,0,1.33.783,99.316,99.316,0,0,1,14.434-2.874c.785-.1,1.019-.406,1.039-1.193C1022.815,280.651,1022.808,280.249,1022.808,280.33Zm35.756-22.922a40.714,40.714,0,0,0-2.706-12.3c-.453-1.213-.947-2.41-1.422-3.615-1.412-.056-2.25,1.129-3.429,1.6-1.488.6-2.887,1.409-4.356,2.06a1.436,1.436,0,0,0-.961,1.647c.213,1.894.526,3.784.616,5.683.16,3.309.748,6.592.593,9.921-.039.822.286,1.13,1.036,1.147,2.41.058,4.836.219,6.988-1.244a13.287,13.287,0,0,1,1.638-.76c2.69-1.313,2.52-1.076,2.026-3.839A2.335,2.335,0,0,1,1058.564,257.408Zm-30.44-13.811a43.147,43.147,0,0,0,10.307-1.277c.877-.181,1.078-.561.8-1.55a34.968,34.968,0,0,0-7.32-14.02,3.481,3.481,0,0,0-2.67-1.184c-1.607-.035-3.215-.012-4.822.014a.885.885,0,0,0-.867,1.007c0,.6.015,1.207.06,1.807.117,1.6.256,3.2.383,4.8.246,3.1.482,6.2.736,9.3a1.03,1.03,0,0,0,1.157,1.091C1026.8,243.62,1027.7,243.6,1028.124,243.6Zm-8.664-16.216.148-.006c.02-.3.065-.6.055-.9-.025-.678.365-1.551-.312-1.958-.412-.249-1.174.168-1.723.044a5.335,5.335,0,0,0-2.922.412,20.321,20.321,0,0,1-2.328.571,2.877,2.877,0,0,0-2.356,2.024,87.172,87.172,0,0,0-3.558,12.094c-.141.684-.342,1.361-.422,2.053a.86.86,0,0,0,.408.7,5.651,5.651,0,0,0,1.729.472q5.4.367,10.81.648c1.09.059,1.447-.3,1.283-1.459-.529-3.689-.472-7.406-.646-11.113-.01-.2-.022-.4-.031-.6Q1019.527,228.869,1019.46,227.381Zm1.3,73.478c.777,0,1.48.036,2.18-.008,1.437-.09,1.747-.536,1.5-1.911a14.91,14.91,0,0,1-.431-3.253c.119-2.426-.557-4.764-.619-7.161a.887.887,0,0,0-.975-.9c-3.289.245-6.58.486-9.865.788a20.19,20.19,0,0,0-2.936.581,9.658,9.658,0,0,0-1.683.612.822.822,0,0,0-.477.986,45.182,45.182,0,0,0,2.352,8.041,1.659,1.659,0,0,0,1.558,1.175c1.7.047,3.344.489,5.051.593C1017.876,300.492,1019.319,301.046,1020.759,300.859Zm11.865-19.238c2.578-.146,5.186-.287,7.793-.444.707-.042,1.045-.39,1.115-1.149.158-1.7.364-3.4.426-5.1.07-1.907.014-3.82-.012-5.73a.86.86,0,0,0-1.023-.833c-.4.032-.8.075-1.2.139-3.268.516-6.52,1.2-9.807,1.516-3.5.331-3.037.237-2.965,3.314a28.126,28.126,0,0,0,.235,4.816c.8,4-.25,3.587,3.9,3.477C1031.587,281.61,1032.091,281.621,1032.624,281.621Zm26.254-14.574h.027c0-.2.006-.4,0-.6-.031-.941-.515-1.3-1.344-.961-1.023.411-2.039.842-3.052,1.274a28.4,28.4,0,0,1-6.711,1.565.836.836,0,0,0-.776.771c-.05.6-.07,1.2-.07,1.8.006,2.409,0,4.818.047,7.227.027,1.286-.3,2.588.145,3.859,1.148.6,2.287,1.211,3.447,1.784a19.936,19.936,0,0,0,1.937.815,1.1,1.1,0,0,0,1.489-.633c.849-1.925,1.726-3.843,2.451-5.816,1.174-3.2,1.16-6.694,2.39-9.889A3.538,3.538,0,0,0,1058.878,267.047Zm-24.611,20v.12c-1.608,0-3.217-.015-4.825,0-.978.012-1.322.306-1.306,1.216.054,3.013.1,6.029.26,9.036a4.273,4.273,0,0,0,.814,2.814c.783-.111,1.562-.246,2.348-.326.9-.091,1.8-.135,2.7-.2a3.151,3.151,0,0,0,3.1-2.363c.926-2.863,1.854-5.722,2.512-8.662.346-1.546.275-1.639-1.389-1.64Zm-32.682-45.255c.209-.293.547-.564.611-.889a82.167,82.167,0,0,1,3.852-12.257c.053-.146.049-.424-.037-.487a.582.582,0,0,0-.526-.031,29.369,29.369,0,0,0-4.765,3.582c-2.111,1.97-3.714,4.388-5.78,6.392a3.383,3.383,0,0,0-.368.473c-.408.567-.193,1.088.555,1.337,1.135.378,2.262.781,3.408,1.119C999.486,241.315,1000.462,241.519,1001.585,241.795Zm37.4-13.2a.9.9,0,0,0-.22.2.287.287,0,0,0,.033.233,45.912,45.912,0,0,1,4.9,10.259,1.261,1.261,0,0,0,.147.262.849.849,0,0,0,1.017.423,24.286,24.286,0,0,0,5.4-2.569.879.879,0,0,0,.146-1.307,44.924,44.924,0,0,0-4.56-3.868c-1.99-1.324-4.186-2.341-6.3-3.479A2.531,2.531,0,0,0,1038.981,228.592Zm-34.455,69.484c-.185-.864-.316-1.756-.574-2.609-.4-1.332-.894-2.636-1.348-3.953-1.46-.321-2.657.584-3.987.867-.2.042-.392.082-.59.122-.673.137-1.425.121-1.767.9a11.953,11.953,0,0,0,1.236,1.286,20.3,20.3,0,0,0,6.513,3.645C1004.132,298.377,1004.325,298.181,1004.526,298.076Zm40.274-6.4-.031-.005c-.047.193-.1.386-.137.581-.162.762-.358,1.519-.465,2.291-.041.287.805.023,2.266-.917a9.589,9.589,0,0,0,1.386-1.126c3.037-2.891,2.116-2.715-1.008-4.168a1.016,1.016,0,0,0-1.39.732C1045.186,289.923,1045.005,290.8,1044.8,291.671Z" transform="translate(-975.075 -218.904)" fill-rule="evenodd"/>
</svg>