<?xml version="1.0" encoding="utf-8"?><!-- Uploaded to: SVG Repo, www.svgrepo.com, Generator: SVG Repo Mixer Tools -->
<svg fill="#000000" width="800px" height="800px" viewBox="-5.71 0 102.638 102.638" xmlns="http://www.w3.org/2000/svg">
  <path id="_head-idea" data-name="
head-idea" d="M1014.876,1015.145a1.847,1.847,0,0,1-1.035-.488,48.653,48.653,0,0,1-2.747-4.316,63.307,63.307,0,0,0-3.538-6.3,8.2,8.2,0,0,1-.729-1.635,1.807,1.807,0,0,0-1.893-1.2,5.242,5.242,0,0,0-1.495.155c-2.94.99-5.962.659-8.966.6a3.422,3.422,0,0,1-3.073-2.043,22.7,22.7,0,0,1-2.578-8.6,54.7,54.7,0,0,0-2.189-11.5,16.768,16.768,0,0,1-.934-4.408,6.333,6.333,0,0,0-.838-2.537,1.748,1.748,0,0,0-2.037-.892,13.708,13.708,0,0,1-2.988.225,4.537,4.537,0,0,1-4.164-6.188,11.355,11.355,0,0,1,2.705-4.658,28.232,28.232,0,0,0,3.549-4.483c.754-1.067,1.557-2.1,2.3-3.172a21.133,21.133,0,0,0,1.432-2.3,3.592,3.592,0,0,0,.326-2.311,28.461,28.461,0,0,1,1.035-12.5,30.21,30.21,0,0,1,8.891-14.092,25.4,25.4,0,0,1,5.945-4.093,65.727,65.727,0,0,1,15.254-5.513,10.89,10.89,0,0,1,2.078-.3c4.02-.041,8.042-.03,12.061-.061a19.011,19.011,0,0,1,6.488,1.176,59.19,59.19,0,0,1,10.989,4.9,27.351,27.351,0,0,1,9.82,9.577c1.118,1.9,2.491,3.646,3.723,5.478a15.8,15.8,0,0,1,2.46,5.142c.526,2.242.914,4.524,1.219,6.808a35.212,35.212,0,0,0,.576,5.079,4.618,4.618,0,0,1-.114,2.072,42.455,42.455,0,0,1-4.276,11.854c-1.1,2.027-1.889,4.22-3,6.235a77.767,77.767,0,0,1-5.715,9.558,6.02,6.02,0,0,0-1.342,3.887c.064,3.722.057,7.444.062,11.165,0,2.918,0,5.835-.036,8.752-.013,1.265-.476,1.7-1.842,1.864-.444.054-.891-.094-.979-.5a2.249,2.249,0,0,0-1.984-1.939c-.457-.081-.637-.851-.389-1.267a2.3,2.3,0,0,1,.522-.729c1.062-.76.743-1.729.472-2.7a.633.633,0,0,0-.886-.5c-.382.121-.737.336-1.122.431a1.581,1.581,0,0,1-1.659-.41,1.25,1.25,0,0,1-.049-1.659c.6-.915,1.231-1.813,1.887-2.691.235-.316.635-.512.85-.836a1.055,1.055,0,0,0,0-.777c-.031-.1-.365-.2-.508-.153-.757.267-1.488.608-2.244.871a1.153,1.153,0,0,1-1.494-1.3,6.536,6.536,0,0,1,1.268-2.706c.5-.573.974-1.169,1.458-1.755-.548.011-1.1.043-1.642.011a.988.988,0,0,1-.9-1.27,9.371,9.371,0,0,1,2.624-4.337,32.97,32.97,0,0,0,5.693-7.359,114.075,114.075,0,0,0,5.319-10.122q1.053-2.169,2.165-4.312c3.3-6.373,3.268-12.914,1.057-19.588a35.616,35.616,0,0,0-4.162-8.34,11.526,11.526,0,0,0-1.858-1.947c-.876-.82-1.838-1.549-2.687-2.395a20.518,20.518,0,0,0-5.573-4.075,6.811,6.811,0,0,1-.808-.4c-3.616-2.361-7.776-3.208-11.88-4.091a34.647,34.647,0,0,0-12.6-.266c-1.786.274-3.589.427-5.376.695-1.287.193-2.558.48-3.836.732-4.476.884-8.172,3.24-11.569,6.151A6.221,6.221,0,0,0,998.3,927.6c-2.209,3.11-4.517,6.169-5.77,9.839a7.13,7.13,0,0,0-.32,1.465c-.3,2.588-1.112,5.111-1.037,7.75-.833,3.185-1.213,6.529-3.613,9.121a39.22,39.22,0,0,0-2.5,3.394c-1.2,1.615-2.366,3.251-3.631,4.81a10,10,0,0,0-1.575,2.547c-.468,1.152-.144,1.618,1.192,1.643.573.013,1.148.008,1.724,0,.532,0,1.065-.007,1.6,0a9.267,9.267,0,0,1,1.8.146,2.393,2.393,0,0,1,1.983,1.659c.448,1.635.88,3.281,1.191,4.949,1.151,6.207-.369,5.518,6.658,4.9,1.2-.1,2.4-.21,3.6-.208a3.862,3.862,0,0,1,1.4.463.646.646,0,0,1,.143,1.014,4.8,4.8,0,0,1-1.2.856,16.085,16.085,0,0,1-5.836,1.35c-.7.009-1.408.024-2.111.061a.82.82,0,0,0-.807,1.021c.086.593.224,1.181.346,1.768a58.4,58.4,0,0,1,1.643,8.262,3.6,3.6,0,0,0,3.1,3.578,6.468,6.468,0,0,0,2.956.157c1.5-.471,3.246-.326,4.5-1.533a39.445,39.445,0,0,0,6.856-3.084,4.054,4.054,0,0,1,2.022-.441,1.813,1.813,0,0,1,1.188.768c.132.189-.124.759-.338,1.061a8.248,8.248,0,0,1-2.856,2.173c-.831.481-.965.815-.683,1.74a17.233,17.233,0,0,0,.859,2.243,114.091,114.091,0,0,1,4.964,13.247.631.631,0,0,1-.637.847A.957.957,0,0,1,1014.876,1015.145Zm30.809-27.87.041-.025c.041-.031.051-.1.077-.154Zm-26.121-15.083a3.979,3.979,0,0,0-.87-1.881,7.845,7.845,0,0,1-1.679-3.767,13.842,13.842,0,0,1-.445-5.044,1.79,1.79,0,0,0-.642-1.573c-1.84-2-3.651-4.017-5.459-6.039a8.28,8.28,0,0,1-1.808-3.1,8.558,8.558,0,0,1,.567-6.143,17.854,17.854,0,0,1,9.216-9.512,26.783,26.783,0,0,1,11.7-2.686,10.91,10.91,0,0,1,4.384.64,7.261,7.261,0,0,1,4.981,6.557,18.28,18.28,0,0,1-1.749,9.373,40.391,40.391,0,0,1-5.243,8.779,4.624,4.624,0,0,0-1.041,3.872c.049.3.075.595.129.891.206,1.138-1.252,2.12-.189,3.4.784.945.013,2.386.79,3.457a1.241,1.241,0,0,1-.144,1.132c-1.3,1.652-2.432,3.5-4.432,4.424a7.387,7.387,0,0,1-2.546.826c-.155.009-.31.014-.466.014C1022.409,975.811,1020.182,974.871,1019.564,972.192Zm1.806-.776a.607.607,0,0,0-.267.046c-.081.045-.191.144-.187.212a1.239,1.239,0,0,0,.124.557,2.932,2.932,0,0,0,2,1.2c1.952.445,3.648.43,5.277-1.756a.532.532,0,0,0-.126-.45c-.581-.093-1.17-.134-1.462-.162C1024.743,971.2,1023.056,971.3,1021.37,971.416Zm-.6-4.056a1.338,1.338,0,0,0-.267.122.771.771,0,0,0-.109,1.054,2.171,2.171,0,0,0,.906.683,17.281,17.281,0,0,0,2.439.183c1.31-.227,3.25-.554,5.188-.9.473-.086.648-.694.429-1.205a1.637,1.637,0,0,0-1.574-1.135q-.16,0-.32,0A29.8,29.8,0,0,0,1020.772,967.36Zm7.106-5.411q-4.049.266-8.095.607a1.019,1.019,0,0,0-.708.451,1.555,1.555,0,0,0,1.482,2.047c.351-.049,1.052-.108,1.734-.256q3.522-.757,7.028-1.585a.491.491,0,0,0,.387-.674c-.077-.171-.216-.408-.362-.437a6.332,6.332,0,0,0-1.26-.159Q1027.982,961.942,1027.878,961.949Zm-3.8-24.628a22.971,22.971,0,0,0-10.105,5.762,10.242,10.242,0,0,0-2.453,4.088,4.716,4.716,0,0,0,.468,3.76,5.782,5.782,0,0,0,.711.971c2.031,2.617,4.356,5.008,6.11,7.843a1.138,1.138,0,0,0,1.345.4c.781-.185,1.566-.355,2.341-.561.255-.068.595-.165.343-.572-1.672-2.687-2.242-5.779-3.16-8.738a3.3,3.3,0,0,1,.145-1.46.656.656,0,0,1,.979-.242,3.607,3.607,0,0,1,.559.7,1.5,1.5,0,0,0,1.223.732c1.489.233,2.545-.174,2.932-1.766a1.364,1.364,0,0,1,.476-.746,2.23,2.23,0,0,1,1.063-.411,1.093,1.093,0,0,1,.94,1.014,10.938,10.938,0,0,1-.292,2.885,14.733,14.733,0,0,0-.993,4.066,3.616,3.616,0,0,1-1.733,3.016.725.725,0,0,0-.277.509c-.013.148.112.419.226.449a1.743,1.743,0,0,0,1.932-.433c.641-.771,1.219-1.6,1.806-2.412a42.683,42.683,0,0,0,5.6-9.612,15.3,15.3,0,0,0,1.112-6.179,3.548,3.548,0,0,0-3.534-3.721,16.524,16.524,0,0,0-1.959-.013c-.421-.032-.825-.047-1.215-.047A15.555,15.555,0,0,0,1024.083,937.321Zm-.772,15.662a.782.782,0,0,0,.17.553,3.336,3.336,0,0,0,.666.443c.069-.184.139-.368.207-.553-.009-.2.059-.482-.044-.578a1.451,1.451,0,0,0-.729-.306h0C1023.5,952.542,1023.327,952.824,1023.311,952.983Zm-18.152,12.161a1.926,1.926,0,0,1-1.553-3.055,7.031,7.031,0,0,1,4.728-2.931,1.091,1.091,0,0,1,.3.029,1.426,1.426,0,0,1,1.139,1.536,5.81,5.81,0,0,1-3.431,4.284,1.9,1.9,0,0,1-.835.146C1005.387,965.152,1005.27,965.148,1005.159,965.144Zm34.7-7.924c-.164-.231.022-.956.315-1.026.758-.185,1.529-.313,1.978-.4,1.139.133,1.94.176,2.716.341a2.47,2.47,0,0,1,.993.613,1.139,1.139,0,0,1-.266,1.777,3.3,3.3,0,0,1-1.525.306C1042.5,958.831,1040.535,958.167,1039.86,957.22ZM999.992,949.9a1.226,1.226,0,0,1-.868-1.107,1.312,1.312,0,0,1,.576-1.283c.764-.606,1.666-.571,3.069-.6.281.088,1.037.281,1.757.564a.818.818,0,0,1,.149,1.269,4.568,4.568,0,0,1-3.27,1.332A6.246,6.246,0,0,1,999.992,949.9Zm45.512-5.246a1.506,1.506,0,0,1-.476-.986c-.019-.116.412-.406.662-.443a10.316,10.316,0,0,1,1.493-.021c.006-.044.011-.088.019-.131.677.125,1.358.231,2.029.382.358.08.454.734.168,1-.143.133-.275.32-.447.378a5.2,5.2,0,0,1-1.671.309A3.359,3.359,0,0,1,1045.5,944.656Zm-36.583-5.089a3.992,3.992,0,0,1-2.69-2.546,1.244,1.244,0,0,1,1.293-1.653,1.408,1.408,0,0,1,.675.19,26.075,26.075,0,0,1,2.126,2.034,1.333,1.333,0,0,1-.045,1.642,1.217,1.217,0,0,1-.911.406A1.5,1.5,0,0,1,1008.921,939.568Zm29.571-7.458a.933.933,0,0,1-.284-.773,5.047,5.047,0,0,1,2.654-3.379,1.762,1.762,0,0,1,.464-.039c.16.215.511.488.565.81a1.464,1.464,0,0,1-.286,1.1,28.355,28.355,0,0,1-2.351,2.253.714.714,0,0,1-.426.115A.578.578,0,0,1,1038.492,932.109Zm-18.292-2.5a2.731,2.731,0,0,1-.414-3.069,1.291,1.291,0,0,1,1.2-.762,1.3,1.3,0,0,1,1.234.7,6.887,6.887,0,0,1,.4,1.145,15.767,15.767,0,0,1-.446,1.722,1.093,1.093,0,0,1-1.046.7A1.208,1.208,0,0,1,1020.2,929.606Z" transform="translate(-975.393 -912.537)"/>
</svg>