<!DOCTYPE svg PUBLIC "-//W3C//DTD SVG 1.1//EN" "http://www.w3.org/Graphics/SVG/1.1/DTD/svg11.dtd">
<!-- Uploaded to: SVG Repo, www.svgrepo.com, Transformed by: SVG Repo Mixer Tools -->
<svg fill="#000000" width="800px" height="800px" viewBox="-4.48 0 104 104" xmlns="http://www.w3.org/2000/svg">
<g id="SVGRepo_bgCarrier" stroke-width="0"/>
<g id="SVGRepo_tracerCarrier" stroke-linecap="round" stroke-linejoin="round"/>
<g id="SVGRepo_iconCarrier"> <path id="_lamp_" data-name=" lamp " d="M283.629,1190.686q-6.421-.159-12.845-.314-2.349-.055-4.7-.067-10.511-.049-21.021-.079a10.418,10.418,0,0,1-4.576-.873,1.6,1.6,0,0,0-.568-.248c-2.458-.052-3.081-1.787-3.433-3.745a7.469,7.469,0,0,1-.147-1.874c.113-1.536-.074-2.9-1.627-3.681a37.36,37.36,0,0,1-1.889-3.237c-1.23-2.651-2.359-5.348-3.534-8.024a5,5,0,0,0-.557-1.122c-1.813-2.3-2.38-5.067-3.019-7.813-.093-.407-.17-.818-.272-1.22-.9-3.535-1.763-7.079-2.723-10.6-.33-1.21.185-2.659-.68-3.613a14.9,14.9,0,0,0-2.861-1.876,3.419,3.419,0,0,1-1.528-2.3c-.412-2.475-.135-4.808,1.776-6.678a14.156,14.156,0,0,1,1.639-1.457c.763-.536,1.6-.962,2.389-1.471a.549.549,0,0,0,.049-.517c-.628-1.074.333-2.034.2-3.04a4.358,4.358,0,0,1,1.851-4.074c.319-.271.6-.587.936-.834,3.609-2.686,6.914-5.733,10.366-8.607.8-.669,1.635-1.308,2.391-2.028,3.632-3.467,7.589-6.56,11.367-9.859a4.029,4.029,0,0,1,3.452-1.048,1.883,1.883,0,0,1,.891.255c1.337,1.134,2.94,2.044,3.38,3.959.209.913.533,1.8.725,2.716a2.544,2.544,0,0,1-.65,2.308,26.008,26.008,0,0,1-5.015,4.634,5.6,5.6,0,0,0-.75.565c-3.942,3.742-8.186,7.164-11.745,11.3-1.84,2.139-3.761,4.208-5.614,6.337a4.961,4.961,0,0,1-3.482,1.855c-1.063.085-1.1.268-1.056,1.446.043,1.148.068,2.3.113,3.446a4.929,4.929,0,0,1-.5,2.737,1.081,1.081,0,0,0,.188,1.413,21.023,21.023,0,0,0,1.977,1.987,7.312,7.312,0,0,1,2.135,2.653c1.464,3.006,2.969,5.991,4.462,8.984a86.851,86.851,0,0,0,4.612,8.191,44.386,44.386,0,0,1,2.493,5.041c1.391,2.926.914,2.481,3.612,1.633a35.335,35.335,0,0,1,5.139-1.334,2.471,2.471,0,0,0,2.133-1.591,7.051,7.051,0,0,1,1.3-2.119,6.272,6.272,0,0,1,4.964-2.274c.524.017,1.048,0,1.568.043,3.747.3,4.3.668,6.04,3.982a4.87,4.87,0,0,1,.4.85,1.845,1.845,0,0,0,1.614,1.277,71.467,71.467,0,0,1,11.264,3.743c3.847,1.48,6.721,4.148,9.53,6.968,1.187,1.194,1.31,2.823,1.579,4.34a12.81,12.81,0,0,1-.043,3.119.946.946,0,0,1-.52.68,11.391,11.391,0,0,1-2.427.6c-2.91.278-5.827.482-8.742.716C283.633,1190.8,283.632,1190.742,283.629,1190.686Zm-31.449-9.5a1.308,1.308,0,0,1,.582,1c-.084.817-.393,1.611-.521,2.429a.8.8,0,0,0,.478.624,1.757,1.757,0,0,0,2.161-.787c.6-1.1,1.215-2.193,1.849-3.276a2.793,2.793,0,0,1,1.712-1.291,1.413,1.413,0,0,1,1.392.507.873.873,0,0,1,.088,1.146c-.562,1-1.158,1.984-1.732,2.976-.223.383.047.594.343.635.728.106,1.4.14,1.894-.666.923-1.518,1.9-3.011,2.944-4.444a11.422,11.422,0,0,1,1.964-1.992,1.492,1.492,0,0,1,2,.2,1.332,1.332,0,0,1,.012,1.963,15,15,0,0,0-2.538,3.937.645.645,0,0,0,.557.9c.207.022.418.02.624.043a1.932,1.932,0,0,0,2.2-1.3,22.51,22.51,0,0,1,2.067-3.5,5.892,5.892,0,0,1,1.6-1.435,1.721,1.721,0,0,1,2.278.316,2.008,2.008,0,0,1,.454,2.3c-.252.451-.626.835-.908,1.27-.4.61-.775,1.232-1.122,1.869-.047.086.122.423.206.429a8.521,8.521,0,0,0,1.854.018c.6-.091.654-.721.87-1.187a4.229,4.229,0,0,1,2.078-2.254,1.147,1.147,0,0,1,1.517.686,5.079,5.079,0,0,1,.155.919c.028.509-.158,1.117.059,1.513.266.491.792.46,1.3.428.144-.009.286-.018.42-.014,1.047.025,2.093.006,3.138.006v.083c.628,0,1.256.006,1.885,0,.837-.011,1.676,0,2.507-.075.248-.022.7-.165.513-.59-.716-1.647-1.574-3.173-3.388-3.89-3.106-1.229-6.178-2.542-9.3-3.723a28.584,28.584,0,0,0-17.249-1.056,44.189,44.189,0,0,0-5.954,1.937,30.875,30.875,0,0,0-7.442,3.994c-1.03.792-2.383,1.4-2.376,3.038a4.925,4.925,0,0,0,2.6.349c.364-.017.729-.035,1.091-.018a1.264,1.264,0,0,0,1.265-.741,8.327,8.327,0,0,1,.9-1.647,9.322,9.322,0,0,1,1.812-1.685.83.83,0,0,1,.462-.112A1.428,1.428,0,0,1,252.18,1181.187Zm-14.589-9.6a.706.706,0,0,0-.459.989c.534,1.127,1.079,2.252,1.689,3.337.377.672.887.706,1.553.184a14.065,14.065,0,0,0,1.41-1.234,2.78,2.78,0,0,0,.381-.787,6.645,6.645,0,0,0-1.92-2.875c-.4-.326-.784-.118-1.174.089a1.462,1.462,0,0,1-.857.253,1.373,1.373,0,0,0-.182-.012A1.9,1.9,0,0,0,237.591,1171.59Zm27.163-1.511c.62,0,1.242.04,1.857-.014a2.613,2.613,0,0,0,1.087-.347c.232-.141-.487-.795-1.057-.883-.816-.125-1.63-.289-2.451-.346a4.1,4.1,0,0,0-1.508.189,2.612,2.612,0,0,0-.97.682c-.248.253.318.575,1.185.6.617.02,1.238,0,1.858,0Zm-27.315-2.293a8.357,8.357,0,0,0-1.134.513c-.133.079-.168.32-.247.488a4.99,4.99,0,0,0,.365.476c.065.068.247.144.275.116.372-.364.712-.757,1.084-1.118.222-.215.23-.36-.047-.465a.485.485,0,0,0-.172-.032A.326.326,0,0,0,237.439,1167.786Zm-4.879-10.08a.664.664,0,0,0-.153.5,1.388,1.388,0,0,0,.2.567c.144.251.31.557.67.3a3.467,3.467,0,0,0,.467-.573,7.078,7.078,0,0,0-.671-.859.227.227,0,0,0-.152-.04A.657.657,0,0,0,232.56,1157.706Zm-1.495-5.629a3.369,3.369,0,0,0-.745.2l.29.837a4.105,4.105,0,0,0,.666-.621c.046-.066-.139-.411-.209-.411Zm-1.784-4.252-.378-.222C228.894,1147.829,228.846,1148.1,229.281,1147.825Zm-.85-.589c.06.11.237.157.39.218a1.782,1.782,0,0,0-.059-.5c-.039-.113-.2-.182-.313-.27C228.436,1146.874,228.355,1147.1,228.432,1147.236Zm-3.492-12.393a6.181,6.181,0,0,0-.787.109,3.06,3.06,0,0,0-2.242,2.676c-.168,1.132.5,1.707,1.363,2.186.181.1.341.236.518.345a1.689,1.689,0,0,0,2.485-.308,5.1,5.1,0,0,0,1.054-1.507,2.547,2.547,0,0,0-2.306-3.5Zm4.318-8.072c-.157.221-.279.732-.16.841.75.7,1.562,1.336,2.377,1.958.072.056.384-.08.481-.206a11.193,11.193,0,0,0,.643-1.024c-.058-.236-.044-.524-.159-.592a25.672,25.672,0,0,0-2.464-1.326.186.186,0,0,0-.078-.015A1.006,1.006,0,0,0,229.258,1126.771Zm3.555-4.09c-.086.173-.248.438-.185.528.524.742,1.081,1.464,1.658,2.168.244.3,1.067-.129,1.2-.6.024-.091.1-.212.065-.267a4.3,4.3,0,0,0-2.519-2.018h-.008C232.964,1122.488,232.852,1122.6,232.813,1122.682Zm3.177-3.351a.779.779,0,0,0,.023.774,23.129,23.129,0,0,0,1.97,1.5c.209.145.743-.18.9-.938a21.792,21.792,0,0,0-1.927-1.872.087.087,0,0,0-.055-.015A2.1,2.1,0,0,0,235.99,1119.331Zm2.953,1.42Zm1.075-5.125a.636.636,0,0,0-.008,1.041c.5.359,1.007.713,1.523,1.049.536.346,1.421-.106,1.68-.844-.031-.186,0-.447-.106-.545a10.663,10.663,0,0,0-1.225-.921,1.6,1.6,0,0,0-.852-.337A1.557,1.557,0,0,0,240.018,1115.626Zm4.359-3.559c-.047.052-.071.2-.037.238q.857.861,1.743,1.695a.6.6,0,0,0,.2-.174,2.539,2.539,0,0,0,.112-.468c-.533-.431-1.142-.928-1.765-1.409a.035.035,0,0,0-.021-.005A.445.445,0,0,0,244.377,1112.066Zm7.245-6.062c-.913.675-1.766,1.431-2.642,2.154-1.416,1.167-1.425,1.341-.128,2.437a1.279,1.279,0,0,0,1.931.085c.981-.75,1.938-1.537,2.867-2.352.2-.172.232-.532.329-.773a7.18,7.18,0,0,0-.334-.936,1.452,1.452,0,0,0-1.229-.907A1.337,1.337,0,0,0,251.622,1106Zm22.318,42.929a12.618,12.618,0,0,1-3.052-3.947,1.714,1.714,0,0,0-1.756-1.057c-1.043.042-2.086.1-3.128.131-2.922.082-5.845.132-8.767.236a1.635,1.635,0,0,1-1.658-1.146,7.033,7.033,0,0,1-.373-6.048c.247-.573.391-1.2.692-1.741q4.051-7.254,8.15-14.478a48.41,48.41,0,0,1,6.981-8.836,2.143,2.143,0,0,0,.688-2.209,4.884,4.884,0,0,1,.4-3.665,2.377,2.377,0,0,0,.043-2.624c-1.89-3.3-1.521-6.894-1.1-10.409a7.616,7.616,0,0,1,3.41-5.08,2.673,2.673,0,0,1,1.127-.526c2.885-.416,5.787-1.154,8.679-.246a10.475,10.475,0,0,1,2.967,1.67c.832.617,1.465,1.492,2.249,2.183,3.155,2.781,3.419,6.521,3.419,10.327a14.566,14.566,0,0,1-.5,2.416c-.086.485.2.612.752.372.1-.042.182-.1.273-.155a1.709,1.709,0,0,1,.274-.151c.727-.255,1.67.151,1.71.842.121,2.155.706,4.395-.924,6.3a.8.8,0,0,0,.041,1.112,223.607,223.607,0,0,1,14.647,21.107c1.044,1.678,1.838,3.513,2.743,5.279a5.85,5.85,0,0,1,.577,3.046,3.318,3.318,0,0,1-3.6,3.125c-2.08-.157-4.16-.32-5.567-.428-2.039,0-3.4,0-4.757,0-.676,0-1.234.175-1.45.908-.031.1-.094.188-.134.284-1.924,4.755-5.812,6.593-10.582,7.064a21.087,21.087,0,0,1-2.213.062c-.412,0-.824-.005-1.236.005-.109,0-.217,0-.325,0A12.617,12.617,0,0,1,273.94,1148.934Zm5.493-4.62a15.323,15.323,0,0,0-1.822.24c-.05.941.834,1.047,1.345,1.459a6.777,6.777,0,0,0,4.379,1.427c2.639,0,5.222-.29,7.293-2.2a.735.735,0,0,0,.232-.545c-.017-.118-.3-.28-.46-.282-1.984-.019-3.968-.013-5.953-.013v-.1c-.95,0-1.9-.007-2.85-.007C280.875,1144.3,280.154,1144.3,279.433,1144.314Zm-10.494-5.754a25.158,25.158,0,0,0,3.75.165c4.388-.025,8.779-.044,13.167-.145,4.175-.1,8.346-.29,12.517-.442,0,.05,0,.1,0,.149,2.09,0,4.18,0,6.271,0,.416,0,.832-.025,1.247-.053.328-.021.589-.383.449-.63-.463-.816-.9-1.649-1.409-2.435-5.116-7.883-10.19-15.793-16.406-22.882a1.587,1.587,0,0,0-1.031-.54c-2.3-.01-4.609-.089-6.89.128-3.714.354-3.984.6-6.114,3.582a.79.79,0,0,0-.027.517c.013.067.166.157.255.159,1.045.015,2.089.017,3.133.022a3.344,3.344,0,0,1,2.039.693,1.171,1.171,0,0,1,.076,1.666,2.653,2.653,0,0,1-1.663.776c-1.764.189-3.528.377-5.289.594a5.463,5.463,0,0,0-1.5.356.935.935,0,0,0-.461.729.843.843,0,0,0,.571.581c.821.143,1.664.15,2.488.276a1.372,1.372,0,0,1,1.139,1.3,1.4,1.4,0,0,1-.969,1.117,5.964,5.964,0,0,1-.6.159,7.1,7.1,0,0,1-4.016.064,1.141,1.141,0,0,0-1.335.559c-.281.44-.572.875-.839,1.322a.607.607,0,0,0,.355.957,15.637,15.637,0,0,1,1.869.178,8.655,8.655,0,0,1,2.031.748,1.413,1.413,0,0,1,.14,2.179,3.7,3.7,0,0,1-1.66.759,42.023,42.023,0,0,1-4.379.212,2.564,2.564,0,0,0-2.373,1.228c-.878,1.42-1.769,2.834-2.613,4.276-.479.818-.289,1.186.581,1.156q.525-.018,1.047-.018A44.385,44.385,0,0,1,268.939,1138.56Zm7.347-31.383a.73.73,0,0,0,.025.57c.349.772.631.955,1.454.852,1.863-.233,3.721-.5,5.754-.774,1.2.162,2.536.36,3.875.517,1.035.122,2.075.24,3.116.26a2.726,2.726,0,0,0,1.141-.427.9.9,0,0,0,.4-.455c.028-.077-.2-.3-.346-.371a6.131,6.131,0,0,0-3.677-.391,17.933,17.933,0,0,1-3.416.374c-2.605-.061-5.211-.267-7.815-.394h-.021A.66.66,0,0,0,276.286,1107.177Zm1.654-14.3a1.568,1.568,0,0,0-.764.483,7.283,7.283,0,0,0-1.574,4.009,38.68,38.68,0,0,0,.366,4.657c.06.635.389.96.984.944,1.978-.052,3.955-.129,5.93-.2,0,.031,0,.059,0,.089,1.662,0,3.329-.043,4.992.012,2.018.067,2.032.06,1.336-1.758-.331-.866-.565-1.772-.85-2.657s-.534-1.793-.882-2.658a4.843,4.843,0,0,0-2.805-2.787,10,10,0,0,0-3.54-.654A10.384,10.384,0,0,0,277.94,1092.876ZM261.514,1107.1c-3.818-2.439-2.706-6.429-.1-7.971a5.6,5.6,0,0,1,4.789-.756c2.5.844,3.542,2.345,3.559,5.569a6.43,6.43,0,0,1-.115,1.224,3.436,3.436,0,0,1-2.683,2.769,9.343,9.343,0,0,1-1.824.19A6.583,6.583,0,0,1,261.514,1107.1Zm1.921-5.256a1.2,1.2,0,0,0-.7,1.374,2.323,2.323,0,0,0,.423.643,2.282,2.282,0,0,0,2.052.353.962.962,0,0,0,.487-.334,1.685,1.685,0,0,0-.005-1.739,1.9,1.9,0,0,0-1.056-.492,1.81,1.81,0,0,0-.217-.013A2.679,2.679,0,0,0,263.435,1101.841Z" transform="translate(-217.481 -1086.855)"/> </g>
</svg>