<?xml version="1.0" encoding="utf-8"?><!-- Uploaded to: SVG Repo, www.svgrepo.com, Generator: SVG Repo Mixer Tools -->
<svg fill="#000000" width="800px" height="800px" viewBox="0 -4.87 104.538 104.538" xmlns="http://www.w3.org/2000/svg">
  <path id="_laptop01" data-name="
laptop01" d="M478.555,311.13a59.632,59.632,0,0,0-10.221-.5c-.988,0-1.976,0-2.964-.007-2.028-.009-4.056-.018-6.083.021-4.924.1-9.844.265-14.767.385a18.167,18.167,0,0,1-2.088-.1c-2.6-.234-5.2-.541-7.8-.721a57.437,57.437,0,0,0-12.018.733,22.024,22.024,0,0,1-6.6,0,5.3,5.3,0,0,0-1.2-.145,21.811,21.811,0,0,1-7.113-1.02,9.613,9.613,0,0,0-2.686-.266c-1.337.035-1.971-.824-2.559-1.779a2.784,2.784,0,0,1-.219-.873,16.4,16.4,0,0,1,.471-9.737,60.2,60.2,0,0,1,7-12.261,44.432,44.432,0,0,0,2.661-4.02,7.737,7.737,0,0,1,4.418-3.357,17.434,17.434,0,0,1,6.182-1.182c1.2,0,2.394-.224,3.591-.344.7-.068,1.4-.181,2.1-.179,4.424.013,8.848.008,13.272.1,2.3.047,4.609.285,6.912.438.063,0,.129,0,.194,0a1.122,1.122,0,0,1,.407.043c2.532.906,5.166.617,7.755.584,6.442-.078,12.857.515,19.285.65,1.5.031,2.992.385,4.494.441,2.714.108,5.429.073,8.143.161,1.3.043,2.59.255,3.889.341,2.352.157,3.8,1.641,5.074,3.387a2.145,2.145,0,0,1,.293.526c1,2.743,2.723,5.113,3.935,7.737s2.219,5.381,3.307,8.08a7.728,7.728,0,0,1,.319,5.3,21.05,21.05,0,0,0-.73,3.529,2.838,2.838,0,0,1-1.375,2.184,8.227,8.227,0,0,1-4.522,1.443c-2.415.051-4.828.014-7.242.014v.048c-1.911,0-3.821-.027-5.73.012-.9.02-1.791.215-2.688.252-1.157.048-2.334.193-3.487.193A9.553,9.553,0,0,1,478.555,311.13Zm-2.785-9.455c2.159.436,4.378.573,6.572.817,1.494.166,2.992.3,4.489.424,3.737.3,7.411-.418,11.11-.719a10.319,10.319,0,0,0,2.329-.606.849.849,0,0,0,.523-.972,4.171,4.171,0,0,0-.205-1.182c-1.43-3.41-2.4-7.019-4.574-10.105a7.858,7.858,0,0,1-1.183-2.42c-.6-2.211-2.247-2.974-4.242-3.258a14.4,14.4,0,0,0-3.012-.082c-4.746.32-9.422-.572-14.136-.75-1.2-.045-2.392-.494-3.577-.445-3.007.13-6.01-.022-9.013-.174a79.363,79.363,0,0,0-10.859-.055,21.914,21.914,0,0,1-3.3-.2c-1.3-.084-2.605-.219-3.911-.242-2.211-.041-4.426-.014-5.8-.014-3.752.083-6.669.093-9.584.223s-5.814.384-8.72.585c-.2.013-.4.01-.6.032a3.136,3.136,0,0,0-2.318,1.25,40.954,40.954,0,0,0-3.786,5.4c-1.471,2.934-3.33,5.711-3.99,9.032-.361,1.823-.247,2.223,1.409,3.082a4.626,4.626,0,0,0,2.338.391q7.842-.085,15.682-.2c.5-.005,1-.092,1.5-.143,2.295-.23,4.585-.565,6.861.213a5.565,5.565,0,0,0,1.8.113c.535,0,1.072.006,1.609.015a23.273,23.273,0,0,0,6.194-.459,3.15,3.15,0,0,1,.872-.054c.111,0,.221.006.331.005,6.233-.057,12.467-.129,18.7-.156.6,0,1.209-.006,1.813-.006A44.065,44.065,0,0,1,475.771,301.675Zm-30.449-2.364a3.573,3.573,0,0,1-3.584-3.31,7.976,7.976,0,0,1,1.75-5.616,1.9,1.9,0,0,1,.963-.664c1.948-.451,3.9-.879,5.867-1.226a4.872,4.872,0,0,1,2.094.049,17.931,17.931,0,0,0,5.025.428c.32,0,.642-.006.963-.005.7,0,1.408.014,2.111.018a3.921,3.921,0,0,1,3.978,3.031,13.725,13.725,0,0,1,.592,5.648,1.381,1.381,0,0,1-1.1,1.276,7.131,7.131,0,0,1-1.781.186c-2.812.017-5.625.007-8.438.007v.184c-1.725,0-3.451.008-5.175.008Q446.953,299.323,445.322,299.31Zm4.631-3.271c2.6.184,5.2.436,7.8.625a22.39,22.39,0,0,0,2.408-.01.962.962,0,0,0,.9-1,7.3,7.3,0,0,0-.033-.9c-.139-1.3-.436-1.612-1.66-1.631-1.607-.026-3.215-.006-4.822-.006v.1c-1.606,0-3.215-.052-4.819.021a14.9,14.9,0,0,0-2.656.443c-.625.143-.863.844-.681,1.746.1.506.416.68,1.175.658.607-.019,1.215-.072,1.819-.072C449.576,296.021,449.765,296.026,449.953,296.039Zm21.862-20.213a7.351,7.351,0,0,0-1.2-.053c-6.336.048-12.652-.392-18.97-.743-3.108-.175-6.206-.494-9.3-.828a28.618,28.618,0,0,0-6.311-.006c-1.3.146-2.607.146-3.908.271-1.191.114-2.375.323-3.569.455a7.326,7.326,0,0,1-2.088.108c-2.283-.42-4.587-.2-6.877-.392a7.989,7.989,0,0,1-7.012-6.088,24.389,24.389,0,0,1-.461-4.179c-.094-3.72-.088-7.44-.14-11.16-.038-2.508-.187-5.008-.346-7.514a51.634,51.634,0,0,1,.187-11.131,25.682,25.682,0,0,0,.178-4.213,31.244,31.244,0,0,1,.666-6.278,7.138,7.138,0,0,1,6.026-5.889c.886-.164,1.789-.215,2.687-.3,1.8-.163,3.6-.4,5.4-.454.833-.021,1.67.028,2.506.077a25.979,25.979,0,0,0,2.91.061c3.505-.2,7-.637,10.5-.814s7.034-.185,10.551-.212c2.615-.021,5.229.039,7.844.076a8.437,8.437,0,0,1,1.8.115c2.4.56,4.806.219,7.207.156,1.9-.053,3.8-.334,5.705-.371,3.617-.072,7.238-.033,10.858-.062a15.661,15.661,0,0,1,5.572,1.1,6.386,6.386,0,0,1,3.2,2.605,18.546,18.546,0,0,1,2.312,6.789,37.986,37.986,0,0,1,.569,8.691c-.084,3.215-.02,6.434-.02,9.652h-.1c0,3.416-.072,6.837.023,10.254a61.226,61.226,0,0,1-.494,8.416,23.073,23.073,0,0,1-2.544,7.674,3.571,3.571,0,0,1-1.22,1.3,17.886,17.886,0,0,1-10.105,3.4c-.636,0-1.273,0-1.91,0h-1.093A58.643,58.643,0,0,1,471.815,275.826Zm-29.1-6.61c1.7.127,3.4.309,5.1.434a25.386,25.386,0,0,1,3.008.154c3.091.614,6.211.422,9.323.522,4.117.127,8.23.34,12.344.539,2.508.123,5.02.234,7.522.449a17.483,17.483,0,0,0,5.658-.523,8.489,8.489,0,0,0,5.389-4.091,13.412,13.412,0,0,0,2.011-7.129c-.123-7.444-.04-14.891,0-22.332.01-1.7.2-3.408.284-5.113a12.716,12.716,0,0,0-1.687-6.917,5.049,5.049,0,0,0-1.367-1.572,9.838,9.838,0,0,0-5.824-2.2,39.688,39.688,0,0,0-5.125.077,83.847,83.847,0,0,1-9.028.363c-6.437.1-12.877.12-19.314.2-1,.012-2,.191-3,.213a66.7,66.7,0,0,1-9.035.037c-4.256-.5-8.436-.035-12.625.344a38.074,38.074,0,0,0-5.85,1.361,2.087,2.087,0,0,0-1.6,1.643,32.616,32.616,0,0,0-.778,4.435c-.3,4.511-.491,9.027-.72,13.543q-.18,3.464-.34,6.925a6.232,6.232,0,0,0,.021,1.506,11.746,11.746,0,0,1-.01,3.9c-.16,1.192-.134,2.407-.191,3.613h.088c0,.806.031,1.612-.008,2.414a10.055,10.055,0,0,0,1.04,4.352,3.709,3.709,0,0,0,2.561,2.357,18.018,18.018,0,0,0,3.8.877,53.694,53.694,0,0,0,10.537-.236,25.131,25.131,0,0,1,4.052-.3C440.2,269.052,441.453,269.122,442.711,269.216Zm16.25-7.148a4.552,4.552,0,0,1-.807-2.227,5.379,5.379,0,0,0-1.648-3.736c-1.088-1.314-2.113-2.684-3.166-4.029-.754-.968-.744-.949-2.1-.312a3.255,3.255,0,0,1-1.416.4,9.885,9.885,0,0,1-2.957-.409,3.706,3.706,0,0,0-3.433.372c-1.471.869-2.979,1.675-4.475,2.5a1.654,1.654,0,0,0-.889,1.467,8.149,8.149,0,0,1-.164,1.5,4.5,4.5,0,0,1-5.9,3.143,3.084,3.084,0,0,1-2.256-2.217,6.829,6.829,0,0,1,.793-5.789,3.849,3.849,0,0,1,3.847-1.873,5.7,5.7,0,0,1,1.745.4,1.645,1.645,0,0,0,1.688-.145c2.012-1.138,4.039-2.246,6.059-3.371a1.394,1.394,0,0,0,.734-1.232c.024-.6-.013-1.213.068-1.807a4.8,4.8,0,0,1,3.674-4.3,4.342,4.342,0,0,1,5.283,2.822,3.772,3.772,0,0,1,.2,1.186c-.071,1.959,1.021,3.375,2.16,4.779,1.2,1.483,2.394,2.975,3.606,4.45a4.279,4.279,0,0,0,.879.813c.592.406,4.113-.074,4.61-.606a4.341,4.341,0,0,0,.563-.706,40.8,40.8,0,0,1,6.346-7.644,2.461,2.461,0,0,0,.912-2.4,4.978,4.978,0,0,1-.051-.9,6.139,6.139,0,0,1,4.81-6.428,4.612,4.612,0,0,1,2.362-.267,4.562,4.562,0,0,1,3.866,4.379c.05.6.005,1.205.005,1.706a6.285,6.285,0,0,1-1.284,4.622,4.742,4.742,0,0,1-4.77,1.883c-.779-.122-1.545-.323-2.318-.487-.74.672-1.539,1.287-2.211,2.022-1.9,2.078-3.748,4.2-5.619,6.308a1.557,1.557,0,0,0-.313,1.377,16.522,16.522,0,0,1,.166,3.3,3.772,3.772,0,0,1-2.075,3.127,5.2,5.2,0,0,1-2.56.708A4.561,4.561,0,0,1,458.961,262.068Zm3.7-3.246a1.262,1.262,0,0,0-.223.808.915.915,0,0,0,.535.595.844.844,0,0,0,.695-.3,2.981,2.981,0,0,0,.283-.965,3.044,3.044,0,0,0-.716-.628.056.056,0,0,0-.023,0C463.091,258.332,462.784,258.622,462.664,258.822Zm-29.016-4.277c-.6.473-.56,1.187-.572,2a2.867,2.867,0,0,0,.281.666.54.54,0,0,0,.475.194,1.967,1.967,0,0,0,.546-2.951.331.331,0,0,0-.216-.055A.932.932,0,0,0,433.648,254.545Zm15.8-10.34a1.111,1.111,0,0,0-1.051.892,3.607,3.607,0,0,0,.965,3.035.767.767,0,0,0,.68-.171,17.753,17.753,0,0,0,.57-1.713c-.056-.592-.078-.891-.115-1.19a1.009,1.009,0,0,0-.984-.855Zm29.389-4.741a5.286,5.286,0,0,0-1.488.934,2.024,2.024,0,0,0,2.015,3.346,1.465,1.465,0,0,0,.774-.783c.156-.345.1-.78.087-.59,0-.987,0-1.385,0-1.782a2.145,2.145,0,0,0-.051-.294,1.1,1.1,0,0,0-1.026-.895A.758.758,0,0,0,478.836,239.464Z" transform="translate(-401.731 -216.459)"/>
</svg>