<?xml version="1.0" encoding="utf-8"?><!-- Uploaded to: SVG Repo, www.svgrepo.com, Generator: SVG Repo Mixer Tools -->
<svg fill="#000000" width="800px" height="800px" viewBox="0 -3.95 104.143 104.143" xmlns="http://www.w3.org/2000/svg">
  <path id="_pie-chart" data-name="
pie-chart" d="M1202.422,661.957a53.749,53.749,0,0,1-14.251-1.706,37.987,37.987,0,0,1-13.184-6.422,12.664,12.664,0,0,1-1.258-1.239,9.944,9.944,0,0,0-1.061-1.054c-3.411-2.509-5.6-6-7.653-9.578-1.047-1.825-1.849-3.791-2.769-5.689-.61-1.264-1.3-2.492-1.831-3.787a20.493,20.493,0,0,1-1.545-4.54,49.058,49.058,0,0,1-.878-10.793,4.021,4.021,0,0,1,.031-.9c.929-2.892.7-5.97,1.4-8.886.416-1.733.706-3.54,1.878-5.032a3,3,0,0,0,.458-1.689,8.741,8.741,0,0,1,.91-3.47,50.9,50.9,0,0,1,14.407-18.7,73.31,73.31,0,0,1,6.551-4.814,49.66,49.66,0,0,1,11.212-5.094,35.265,35.265,0,0,1,11.831-1.939c1.193.021,2.4-.07,3.455.77a1.537,1.537,0,0,0,.944.157,4.461,4.461,0,0,1,.481.006,5.214,5.214,0,0,1,1.159.123c.236.077.607.437.568.554-.63,1.881-.185,3.791-.215,5.685a3.762,3.762,0,0,1-.131,1.187,9.009,9.009,0,0,0-.186,4.171,19.918,19.918,0,0,1-.045,5.708,10.7,10.7,0,0,0-.107,1.2c-.264,4.412-.489,8.826-.8,13.234-.137,1.9-.465,3.784-.7,5.678-.147,1.193-.308,2.386-.41,3.586q-.319,3.75-.576,7.506c-.064.955.231,1.382,1.034,1.572,4.877,1.16,9.752,2.336,14.644,3.441,2.443.552,4.9,1.061,7.383,1.409a27.24,27.24,0,0,1,5.2,1.465c2.557.9,5.074,1.908,7.6,2.9a13.761,13.761,0,0,1,1.607.811c1.139.627,2.273,1.261,3.4,1.912a.785.785,0,0,1,.434.984,31.172,31.172,0,0,1-3.155,7.146,41.123,41.123,0,0,1-12.451,13.336,63.5,63.5,0,0,1-22.887,9.587,47.2,47.2,0,0,1-9.527,1.225Q1202.9,661.977,1202.422,661.957Zm3.128-36.919c-1.767,1.637-3.541,3.264-5.3,4.907q-9.8,9.141-19.583,18.288c-.513.48-1.032.951-1.535,1.441-.342.336-.291.681.138.968a34.816,34.816,0,0,0,19.546,5.962c2.1.018,4.206.14,6.306.238.6.029,1.193.135,2.092.241a10.749,10.749,0,0,0,2.319-.577,18.541,18.541,0,0,1,3.713-1.162,59.938,59.938,0,0,0,12.136-4.371,14.672,14.672,0,0,0,1.308-.733.745.745,0,0,0,.162-1.052,11.321,11.321,0,0,0-.791-.905,153.742,153.742,0,0,1-11.636-13.407c-2.189-2.739-4.116-5.7-6.738-8.086a8.546,8.546,0,0,1-1.2-1.718c-.144-.221-.287-.309-.432-.309A.827.827,0,0,0,1205.55,625.038Zm-29.957,10.29a7.72,7.72,0,0,1-.748,3.2c-.32.843-.794,1.626-1.147,2.457-1.356,3.193-1.881,2.8,1.161,5.941.07.071.146.138.222.2a.892.892,0,0,0,1.326-.08c1.576-1.553,3.107-3.154,4.708-4.677,3.132-2.98,6.3-5.917,9.449-8.884.712-.674.7-.841-.108-1.28a22.355,22.355,0,0,1-6.346-5.022c-1.441-1.675-2.9-3.341-4.232-5.1-1.823-2.4-3.532-4.884-5.3-7.326-.479-.661-1.031-.686-1.431-.055-.647,1.018-1.215,2.086-1.889,3.083a1.9,1.9,0,0,0,.1,2.471c1.981,2.658,3.952,5.325,5.887,8.015a32.58,32.58,0,0,1,4.37,7.088,2.474,2.474,0,0,1-.788-.156,15.737,15.737,0,0,1-5.136-4.574c-.916-1.2-1.789-2.427-2.7-3.627-.449-.592-.791-.593-1.148-.056a62.553,62.553,0,0,0-4.448,7.861,1.629,1.629,0,0,0-.113.571.387.387,0,0,0,.131.252c.047.047.189.082.212.054a5.121,5.121,0,0,0,.744-.9,21.922,21.922,0,0,1,4.122-5.527c.116-.112.427-.2.511-.13.213.175.516.466.488.672a8.828,8.828,0,0,1-1,3.126c-1,1.849-1.877,3.772-2.761,5.683a2.126,2.126,0,0,0-.124,1.165,1.2,1.2,0,0,0,.528.671c.373.253.491-.127.651-.361,1.189-1.74,2.368-3.484,3.577-5.209a1.72,1.72,0,0,1,.709-.471.158.158,0,0,1,.066-.014C1175.355,634.394,1175.567,634.869,1175.593,635.328Zm35.843-11.646a.828.828,0,0,0,.073.523c1.474,1.776,2.949,3.553,4.461,5.3q7.4,8.533,14.825,17.043c.626.722,1,.806,1.786.273a35.575,35.575,0,0,0,8.873-8.505c1.176-1.616,2.12-3.4,3.137-5.127a.762.762,0,0,0-.434-1.19c-1.878-.7-3.771-1.364-5.645-2.079a43.21,43.21,0,0,0-8.659-2.461,142.681,142.681,0,0,1-14.4-3.042c-1.254-.333-2.517-.635-3.744-.941C1211.587,623.563,1211.441,623.617,1211.436,623.682Zm-37.261-22.4c.353.176.178.587-.635,1.416-.351.36-.7.717-1.029,1.1-.564.667-.566,1.057-.03,1.885.274.422.579.823.861,1.238a253.968,253.968,0,0,0,15.718,21c.841,1,1.616,2.053,2.432,3.073.607.763.893.777,1.722.11.157-.125.316-.249.464-.385,3.177-2.934,6.341-5.881,9.536-8.794a2.514,2.514,0,0,0,.841-2.415,21.461,21.461,0,0,1-.114-3.308,67.948,67.948,0,0,1,.608-9.315c.433-2.673.729-5.368,1.089-8.053.239-1.79.5-3.577.717-5.37a1.557,1.557,0,0,0-.854-1.75,10.527,10.527,0,0,1-3.527-3.232c-.9-1.212-1.867-2.374-2.7-3.631-1.494-2.265-2.9-4.587-4.351-6.88-.76-1.2-1.021-1.34-2.174-.851-3.7,1.57-7.424,3.083-11.047,4.81a22.9,22.9,0,0,0-9.16,7.618c-.576.828-.6,1.067,0,1.87,6.574,8.765,12.916,17.707,19.914,26.151a15.813,15.813,0,0,1,1.561,2.893c.022.041-.068.167-.134.219a.348.348,0,0,1-.256.1,6.03,6.03,0,0,1-2.9-2.049c-1.633-1.912-3.294-3.8-4.888-5.74a187.21,187.21,0,0,1-12.009-16.237,2.744,2.744,0,0,0-.616-.533A11.308,11.308,0,0,1,1171.04,600a10.052,10.052,0,0,0-1.032,1.482c-.279.422-.05.776.231,1.054a.746.746,0,0,0,1.071.03,7.054,7.054,0,0,1,1.2-.893,2.965,2.965,0,0,1,1.2-.507A1.008,1.008,0,0,1,1174.175,601.285ZM1168.7,622.74c-1.116,2.237-2.228,4.477-3.289,6.738a2.552,2.552,0,0,0,.007,1.148c.005.077.116.148.15.186.143-.127.34-.23.428-.392a13.57,13.57,0,0,1,4.806-5.254c.457-.288.333-.643.092-.991-.34-.493-.682-.986-1.049-1.459a.839.839,0,0,0-.615-.388A.622.622,0,0,0,1168.7,622.74Zm-3.82-5.259c-.565.936-1.049,1.926-1.664,2.829a3.494,3.494,0,0,0-.207,3.65c.051.116.257.162.386.236a2.195,2.195,0,0,0,.45-.42q1.278-2.2,2.529-4.413c.363-.646.219-1.165-.467-1.843a.874.874,0,0,0-.6-.268A.482.482,0,0,0,1164.884,617.481Zm4.765-8.715c-.884,1.574-1.767,3.149-2.614,4.743a.976.976,0,0,0-.009.816,9.189,9.189,0,0,0,1.089,1.418.528.528,0,0,0,.517,0q1.65-1.948,3.247-3.942a1.647,1.647,0,0,0,.169-.553,2.014,2.014,0,0,0-.147-.574c-.41-.688-.842-1.362-1.284-2.029a.5.5,0,0,0-.423-.235A.642.642,0,0,0,1169.649,608.766Zm-7.169,5.666c-.006.07.1.156.151.233.061-.221.125-.443.175-.668,0-.014-.116-.053-.176-.08A3.192,3.192,0,0,0,1162.48,614.433Zm5.14-9.536q-1.829,2.523-3.607,5.083c-.292.415-.008.742.269,1.014a.65.65,0,0,0,1.013-.15q1.624-2.491,3.223-4.994a1.809,1.809,0,0,0,.131-.537,2.336,2.336,0,0,0-.29-.506.438.438,0,0,0-.322-.156A.544.544,0,0,0,1167.62,604.9Zm-2.492-2.29c.056-.122.113-.243.171-.364C1165.1,602.255,1164.89,602.262,1165.128,602.608Zm.3-1.5a9.213,9.213,0,0,0-.019,1.043.774.774,0,0,0,.581-.8c.009-.163-.147-.336-.228-.5C1165.646,600.93,1165.439,601.006,1165.428,601.1Zm5.014-8.613c-1.056,1.583-2.091,3.182-3.128,4.779a.4.4,0,0,0-.063.289c.088.274.14.624.337.778a.8.8,0,0,0,.766.02c.724-.692,1.4-1.436,2.072-2.182a2.278,2.278,0,0,1,2.134-.672c.131-1.172-.756-1.951-1.182-2.906a.552.552,0,0,0-.5-.353A.525.525,0,0,0,1170.442,592.491Zm2.66,3.466a.553.553,0,0,0-.368-.344Zm31.6-21.474c-1.241.185-3.415.491-5.581.841-.786.126-1.559.349-2.331.549a.661.661,0,0,0-.366.942q3.9,5.328,7.822,10.648a14.276,14.276,0,0,0,1.426,1.539,1.541,1.541,0,0,0,.518.217,1.955,1.955,0,0,0,.21-.55,116.056,116.056,0,0,1,1.2-12.232c.266-1.715.063-1.957-2.488-1.957Zm-10.021,78.57a1.383,1.383,0,0,1-1.333-1,11.917,11.917,0,0,1-.19-2.91c.024-.368.567-.7.823-.99.347.087.611.072.708.192a17.176,17.176,0,0,1,1.786,2.313c.531.928-.565,2.4-1.651,2.4A1.17,1.17,0,0,1,1194.683,653.053Zm-7.6-.79a2.223,2.223,0,0,1-1.692-2.174,1.735,1.735,0,0,1,1.4-1.7c.772-.14,1.561-.2,2.515-.308a3.055,3.055,0,0,1,.719.692.938.938,0,0,1-.049.825,20.83,20.83,0,0,1-1.806,2.345,1.417,1.417,0,0,1-.968.326C1187.16,652.267,1187.12,652.266,1187.081,652.262Zm31.68-2.673a2.453,2.453,0,0,1,.631-2.418,1.2,1.2,0,0,1,1.357-.056c1.059.6.9,2.848-.123,3.272-.177.073-.367.115-.551.172l-.062,0A1.392,1.392,0,0,1,1218.761,649.589Zm-10.932.675a1.747,1.747,0,0,1-1.375-1.7c-.018-.3,0-.593,0-.98-.016-.789-.229-1.782.866-2.191.942-.353,1.367.571,2.006.963,1,.608.928,2.138.491,2.943a2.014,2.014,0,0,1-1.652,1.009A1.177,1.177,0,0,1,1207.829,650.264Zm6.26-5.849c-.311-.156-.708-.59-.686-.861a13.368,13.368,0,0,1,.547-2.589.882.882,0,0,1,.682-.491,1.377,1.377,0,0,1,1.008.429,7.16,7.16,0,0,1,.523,1.611,12.076,12.076,0,0,1-.328,1.212,1.375,1.375,0,0,1-1.25.8A1.1,1.1,0,0,1,1214.088,644.415Zm-17.024-.89c-.212-.648-.331-1.329-.394-1.591-.015-1.132.336-1.657.9-1.78a1.281,1.281,0,0,1,1.474.713,12.511,12.511,0,0,1,.624,1.969,1.438,1.438,0,0,1-1.16,1.5.942.942,0,0,1-.184.017A1.393,1.393,0,0,1,1197.065,643.525Zm8.9-3.537a2.121,2.121,0,0,1-1.213-.794,4.728,4.728,0,0,1-.612-1.667,1.179,1.179,0,0,1,1.1-1.469c.2-.023.4-.02.6-.03a5.222,5.222,0,0,1,.594.061,1.386,1.386,0,0,1,1.044,1.581,12.391,12.391,0,0,1-.513,1.406c-.174.416-.384.926-.853.927A.735.735,0,0,1,1205.965,639.988Zm-24.256-4.539.4.157c-.089.08-.176.159-.266.238Zm-.069-.027.045-.043.024.07Zm-.021-.054.066.011-.045.043Zm24.355-2.532c-.129-.473-.211-.958-.294-1.347.074-.4.114-.7.184-.985.092-.377.983-.68,1.266-.412,1.122,1.058,1.4,2.322-.151,3.117a.492.492,0,0,1-.223.045C1206.45,633.252,1206.039,633.072,1205.974,632.836Zm51.7-13.1c-.4-.036-.8-.005-.589-.005a14,14,0,0,1-8.334-2.078,13.128,13.128,0,0,1-2.8-1.713,3.252,3.252,0,0,0-1.629-.648q-4.12-.849-8.256-1.619c-3.741-.7-7.525-1.179-11.214-2.16-.868-.231-1.794-.235-2.669-.444a3.736,3.736,0,0,1-2.585-1.832c-1.75-2.98-1.889-3.068-1.623-6.461.132-1.7.335-3.395.618-5.075.632-3.755,1.356-7.493,2-11.246.337-1.975.57-3.967.867-5.947.356-2.379.763-4.751,1.08-7.135.159-1.191.123-2.408.26-3.6a23.36,23.36,0,0,1,.553-2.943.988.988,0,0,1,1.41-.7c.455.145.82.577,1.379.279,2.026-1.082,4.115-.653,6.156-.125a30.64,30.64,0,0,1,11.866,6.31c3.6,2.975,6.326,6.687,8.992,10.454.574.809.922,1.809,2.118,1.968.131.018.363.563.279.715-.437.789.045,1.367.384,1.958a51.859,51.859,0,0,1,5.167,14.073,46.7,46.7,0,0,1,.87,13.172,6.87,6.87,0,0,1-.718,2.578,3.471,3.471,0,0,1-3.2,2.245Q1257.863,619.754,1257.671,619.737Zm-32.835-25.268a.731.731,0,0,0-.284.5c-.11.694-.186,1.394-.263,2.093-.334,3.093-.678,6.187-.982,9.283-.079.8.226,1.109.978,1.218,2.778.4,5.564.78,8.339,1.213,2.378.371,4.74.846,7.119,1.208a97.727,97.727,0,0,1,12.623,2.813c1.565.455,3.083.9,3.95,2.458.054.1.353.079.535.067.064,0,.142-.14.175-.23a2,2,0,0,0,.144-.566,50.923,50.923,0,0,0-3.306-18.878,1.62,1.62,0,0,0-1.467-1.28,4.339,4.339,0,0,1-1.859-.888,17.167,17.167,0,0,1-1.562-1.417c-.864-.774-1.083-.806-2.09-.1-1.155.806-2.286,1.643-3.4,2.5-.995.767-1.025,1.079-.229,1.922.827.878,1.681,1.731,2.531,2.589,1.883,1.9,1.606,1.885,4.039.593a5.411,5.411,0,0,1,3.667-.984,2.721,2.721,0,0,1-.259,1.084c-.859,1.11-1.782,2.17-2.7,3.227-.593.681-.623.736-.111,1.548.319.509.663,1,.985,1.514.035.055.012.22-.02.23-.169.057-.4.168-.519.1a6.856,6.856,0,0,1-1.533-.947c-.775-.732-1.421-.44-2.137.053-1.408.969-2.8,1.968-4.27,2.837a7.368,7.368,0,0,1-2.507.89c-.364.062-.926-.375-1.2-.735a1.419,1.419,0,0,1,.029-1.119,2.471,2.471,0,0,1,.719-.95c.612-.517,1.272-.979,1.923-1.449.9-.644,1.815-1.262,2.7-1.922.212-.158.54-.405.235-.734-.613-.661-1.243-1.311-1.9-1.931-.945-.9-1.917-1.761-2.878-2.639-1.364.518-2.124,1.76-3.168,2.662-.447.386-1.028.86-1.1,1.363-.072.461.444,1.018.713,1.525.331.622.69,1.229,1.006,1.856a.6.6,0,0,1,.018.513c-.247.315-.526.111-.77-.054s-.489-.356-.733-.532a7.526,7.526,0,0,0-1.972-1.351c-.851-.244-1.245.848-1.962,1.159a3.913,3.913,0,0,1-.8.4,3.982,3.982,0,0,1-1.178-.023.577.577,0,0,1-.379-.927c.6-.668,1.238-1.3,1.808-2a.941.941,0,0,0-.1-1.352q-3.032-3.129-6.073-6.249a.706.706,0,0,0-.43-.18A.208.208,0,0,0,1224.836,594.47Zm7.47-4.1c-.363.346-.7.72-1.043,1.083l-2.256,2.383c.319,1.243,1.423,1.873,2.224,2.707.876.909,1.321,2.289,2.726,2.652.975-.855,1.948-1.707,2.919-2.569a8.668,8.668,0,0,0,.636-.636.763.763,0,0,0,.078-1.076c-1.388-1.58-2.8-3.137-4.224-4.685-.11-.119-.364-.105-.552-.155A2.436,2.436,0,0,0,1232.306,590.374Zm6.439-6.966c-1.12,1.135-2.228,2.283-3.337,3.431a.683.683,0,0,0-.083,1.034c1.472,1.628,2.938,3.258,4.423,4.874.471.512.96.51,1.586.051,1.285-.941,2.572-1.885,3.846-2.846a1.659,1.659,0,0,0,.305-.489c-.065-.178-.081-.405-.2-.527-1.831-1.839-3.675-3.663-5.511-5.494a.788.788,0,0,0-.542-.27A.687.687,0,0,0,1238.745,583.408Zm13.679,9.345c.026.049.1.075.143.112l-.166-.159A.519.519,0,0,0,1252.424,592.753Zm-2.275-2.812a.523.523,0,0,0-.157.483,5.035,5.035,0,0,0,2.259,2.033,3.98,3.98,0,0,0-1.369-2.666.191.191,0,0,0-.13-.036A1.569,1.569,0,0,0,1250.149,589.941Zm-24.323-7.564q-.387,2.827-.758,5.653a3.725,3.725,0,0,0,1.362,3.492.68.68,0,0,0,1.035-.105c.93-1.524,2.379-2.686,3.055-4.388-1.066-1.316-2.125-2.635-3.2-3.945a6.55,6.55,0,0,0-.851-.843.894.894,0,0,0-.5-.112h0C1225.92,582.129,1225.837,582.285,1225.825,582.377Zm16.8-3.344c-.361.348-.731.689-1.065,1.063-.583.653-.625.887-.03,1.54,1.9,2.078,3.829,4.125,5.76,6.172.359.383,1.02.289,1.589-.211a.777.777,0,0,0,.2-1.067,40.423,40.423,0,0,0-5.678-7.392,1.777,1.777,0,0,0-.511-.249A1.1,1.1,0,0,0,1242.625,579.034Zm-16.438-1.753a2.2,2.2,0,0,0,.667,1.61c1.345,1.354,2.691,2.711,3.981,4.119,1.887,2.058,1.711,2.414,3.849.2.347-.361.724-.695,1.089-1.04,1.5-1.42,1.6-1.251.264-2.8q-2.469-2.846-4.851-5.767a6.434,6.434,0,0,1-1.257-2.008,1.8,1.8,0,0,0-1.615-1.5c-.587-.08-1.142-.387-1.73-.482-.2-.031-.491.249-.652.456-.1.13-.041.388-.051.588l.144,0C1226.081,572.869,1226.146,575.074,1226.186,577.281Zm7.35-4.27q2.313,2.57,4.682,5.093c1.2,1.283,1.056,1.076,2.425.106.885-.629.918-.977.215-1.631a28.5,28.5,0,0,0-6.745-4.47,1.568,1.568,0,0,0-.775-.078c-.1.006-.2.012-.3.012A3.9,3.9,0,0,0,1233.536,573.011Zm-.953-1.256.365.2c0-.15,0-.307-.118-.307A.5.5,0,0,0,1232.583,571.755Zm-32.568,41.679a8.217,8.217,0,0,1-3.785-2.371c-1.383-1.591-2.831-3.13-4.171-4.759a169.439,169.439,0,0,1-12.7-17.587c-.637-1.017-1.411-2.009-1.215-3.312.048-.326.378-.609.625-.981a7.33,7.33,0,0,1,1.741.785,12.584,12.584,0,0,1,1.822,2c2.73,3.6,5.4,7.255,8.153,10.843s5.558,7.137,8.376,10.674a10.941,10.941,0,0,1,2.045,3.988c.045.166-.006.475-.116.541a1.349,1.349,0,0,1-.627.2A.474.474,0,0,1,1200.015,613.434Zm53.513-14.847-.034-.007.005-.024a.224.224,0,0,1,.057-.016Zm.246-.4c.328.415-.026.325-.217.355C1253.63,598.422,1253.7,598.3,1253.774,598.185Zm-53,.231a13.368,13.368,0,0,1-2.848-1.612,69.818,69.818,0,0,1-10.222-11.815,2.64,2.64,0,0,1-.6-1.957,1.706,1.706,0,0,1,.279-.5c.184.072.42.1.546.224,1.192,1.219,2.385,2.437,3.54,3.69q3.263,3.541,6.482,7.125a15.726,15.726,0,0,1,3.206,4.33c.052.123-.04.325-.108.47-.016.034-.109.059-.186.059A.186.186,0,0,1,1200.77,598.416Z" transform="translate(-1157.929 -565.734)"/>
</svg>