<?xml version="1.0" encoding="utf-8"?><!-- Uploaded to: SVG Repo, www.svgrepo.com, Generator: SVG Repo Mixer Tools -->
<svg fill="#000000" width="800px" height="800px" viewBox="-20.49 0 101.377 101.377" xmlns="http://www.w3.org/2000/svg">
  <path id="_smartphone-charts" data-name="
smartphone-charts" d="M637.478,839.544a3.461,3.461,0,0,0-1.026-.459c-1.2-.106-2.41-.109-3.615-.189-2.4-.163-4.822-.239-7.2-.571a14.57,14.57,0,0,1-3.684-1.252,14.926,14.926,0,0,1-5.226-3.48,9.99,9.99,0,0,1-2.883-6.71c-.112-4.216-.383-8.426-.462-12.64s-.02-8.448.022-12.672c.01-1.1.174-2.2.249-3.3a14.6,14.6,0,0,0,.056-1.795c-.086-1.5-.265-3-.319-4.5-.212-5.623-.437-11.248-.569-16.873-.084-3.615.084-7.222.352-10.84.374-5.006.455-10.035.629-15.057a5.61,5.61,0,0,1,.613-2.609c1.063-1.906,1.824-3.969,3.717-5.368a8.079,8.079,0,0,1,4.674-1.851c3.717-.062,7.393-.672,11.11-.727a33.078,33.078,0,0,0,5.387-.353,24.094,24.094,0,0,1,5.107.066c.5.019.989.193,1.487.233,3.4.277,6.81.48,10.205.835a28.978,28.978,0,0,0,3.582-.029,25.127,25.127,0,0,1,6,.389,6.9,6.9,0,0,1,2.937,1.424c3.807,3.1,5.018,7.217,4.277,11.863a30.98,30.98,0,0,0-.12,7.19c.062.9.187,1.8.2,2.7.168,8.647.4,17.3.039,25.942-.207,4.919-.252,9.853-.674,14.753-.479,5.525-.369,11.047-.437,16.571-.031,2.729-.476,5.4-.706,8.1a5.368,5.368,0,0,1-2.082,3.874,6.442,6.442,0,0,0-1.578,1.384,5.753,5.753,0,0,1-4.413,2.732,3.786,3.786,0,0,0-2.07,1.164,5.687,5.687,0,0,1-4.155,1.455c-2.815.02-5.631.065-8.446.118h-.179c-.43,0-.879-.007-1.135.482ZM621.405,834.3c-.1.342.334.893.606.77a5.955,5.955,0,0,0,1.041-.837,3.716,3.716,0,0,0-.844-.509.718.718,0,0,0-.179-.024C621.7,833.7,621.5,833.969,621.405,834.3Zm20.737-13.419a33.388,33.388,0,0,0-3.387,1.237c-2,.857-3.4,2.156-3,4.6a1.055,1.055,0,0,1,0,.3c-.254,1.816.7,3.038,2.015,4.073a13.372,13.372,0,0,0,1.228.865,6.273,6.273,0,0,0,7.475-1.02,4.241,4.241,0,0,0,1.318-2.758,13.591,13.591,0,0,0-1.44-5.379,3.42,3.42,0,0,0-3.138-2.08A3.694,3.694,0,0,0,642.142,820.881Zm-9.209,9.1a3.189,3.189,0,0,0-1.243.682.98.98,0,0,0-.025,1.34,1,1,0,0,0,1.338.115,5.615,5.615,0,0,0,.758-.869c.1-.686-.327-1.283-.723-1.283A.38.38,0,0,0,632.933,829.983Zm25.193-6.484a2.315,2.315,0,0,0-1.315,2.164c-.011.409.04.846.483.942a1.048,1.048,0,0,0,.783-.319,3.182,3.182,0,0,0,1.005-2.375c-.018-.262-.389-.467-.707-.467A.548.548,0,0,0,658.126,823.5Zm-42.51-.62a2.606,2.606,0,0,0-.3,2.51c.1.226.426.354.649.526.094-.141.254-.275.271-.427.058-.484.065-.974.094-1.537-.017-.317-.02-.711-.072-1.1-.02-.14-.166-.264-.254-.4A3.412,3.412,0,0,0,615.616,822.878Zm13.905.557c-.358.547-.7,1.105-1,1.593.12.225.167.309.212.4a1.325,1.325,0,0,0,.221-.19c.342-.468.694-.933,1-1.425.047-.076-.092-.29-.18-.417-.006-.01-.03-.015-.061-.015A.288.288,0,0,0,629.521,823.435Zm1.751-3.091c-.415.053-.795.527-1.147.855a.594.594,0,0,0-.143.533.583.583,0,0,0,.5.236c1.065-.238,2.12-.508,3.172-.8.168-.046.293-.246.44-.375.033-.094.109-.2.086-.279a.31.31,0,0,0-.239-.141c-.6-.021-1.209-.08-1.81-.08A6.571,6.571,0,0,0,631.273,820.345Zm22.507-70.932c-4.824.026-9.648.115-14.472.192-1,.015-2.01.054-3.01.132-1.5.114-2.994.275-4.492.409-2.2.2-4.4.371-6.594.586a1.426,1.426,0,0,0-1.455,1.261c-.157,1.09-.239,2.2-.309,3.3-.168,2.8-.3,5.606-.467,8.406a3.586,3.586,0,0,1-.2,1.184,10.564,10.564,0,0,0-.5,4.16q.007,9.2,0,18.4l-.2,0q.055,3.148.115,6.3c.068,4.219.16,8.438.193,12.657a17.227,17.227,0,0,0,.9,5.009c.666,2.151,2.263,2.976,4.267,3.225a9.377,9.377,0,0,0,3.006-.021,44.924,44.924,0,0,1,7.207-.465c5.315-.235,10.621-.725,15.952-.5.648.026,1.3.019,1.946.011.76-.009,1.518-.018,2.275.029a4.915,4.915,0,0,0,4.948-5.1c-.076-.592,0-1.205-.014-1.808-.182-6.336.349-12.65.648-18.971a16.252,16.252,0,0,1,.275-2.086,25.224,25.224,0,0,0,.086-8.1,83.117,83.117,0,0,1-1.014-13.192c.053-3.517.043-7.037.033-10.555a27.715,27.715,0,0,0-.176-3.005,1.366,1.366,0,0,0-1.422-1.28c-2.362-.077-4.726-.161-7.087-.161Zm-12.746,56.8a2.882,2.882,0,0,1-2.474-2.969c.033-2.106.005-4.213.005-6.319,0-2.606,0-5.215,0-6.679.084-5.256.148-9.367.215-13.478.01-.5-.013-1.006.039-1.5.239-2.225.957-2.966,3.166-3.289,1.188-.175,2.371-.366,3.565-.5a2.348,2.348,0,0,1,2.758,2.422,4.877,4.877,0,0,1-.118,1.492,19.141,19.141,0,0,0-.472,4.771c-.12,2.4-.3,4.8-.419,7.2-.063,1.2-.061,2.407-.063,3.609-.005,3.712-.062,7.424.037,11.133a3.65,3.65,0,0,1-1.693,3.225,4.733,4.733,0,0,1-3.052,1.063A7.1,7.1,0,0,1,641.034,806.208Zm2.1-10.409a1.187,1.187,0,0,0-.666,1.82.449.449,0,0,0,.732.03,3.338,3.338,0,0,0,.442-.8,2.871,2.871,0,0,0-.12-.766.605.605,0,0,0-.365-.282A.081.081,0,0,0,643.136,795.8Zm-12.2,10.279a2.152,2.152,0,0,1-1.9-1.695,3.139,3.139,0,0,0-.307-.838c-.845-1.7-.85-1.7-.814-3.223.147-1.765.372-3.66.444-5.558.086-2.307.033-4.619.06-6.928.008-.8.025-1.607.112-2.4a1.658,1.658,0,0,1,1.554-1.562c.891-.113,1.778-.248,2.672-.312a4.819,4.819,0,0,1,1.484.1,1.768,1.768,0,0,1,1.481,1.331,17.979,17.979,0,0,1,.464,2.655c.106,2,.087,4.012.159,6.018.091,2.5.242,5.007.33,7.51a13.118,13.118,0,0,1-.1,2.695,2.779,2.779,0,0,1-2.956,2.441h-.138A11.323,11.323,0,0,1,630.935,806.079Zm1.15-19.055c-.049.8-.1,1.6-.109,2.4-.074,4,.279,8.023-.377,12.01a.9.9,0,0,0,.129.574c.1.156.308.355.453.344.258-.024.658-.134.724-.311a4.437,4.437,0,0,0,.26-1.45c.031-1.5.012-3.008.012-4.512h-.059c0-1.1-.045-2.209.008-3.309a31.412,31.412,0,0,0-.5-5.678c-.016-.113-.229-.2-.364-.284h0C632.238,786.8,632.089,786.946,632.085,787.024ZM653.183,805a2.327,2.327,0,0,1-2.28-2.615c.13-1.8.334-3.594.371-5.395a34.682,34.682,0,0,0-.3-3.58c-.092-1.1-.231-2.2-.233-3.3-.025-7.628-.008-15.258-.037-22.885a12.769,12.769,0,0,1,.645-4.133,2.039,2.039,0,0,1,1.724-1.465c2.3-.409,4.112.578,5.738,2.027a2.06,2.06,0,0,1,.527,1.049c.178.775.267,1.571.34,2.018-.045.857-.069,1.359-.1,1.859-.107,1.7-.3,3.4-.307,5.1-.043,5.422-.033,10.841-.015,16.26a45.676,45.676,0,0,0,.369,7.806,19.233,19.233,0,0,1,.141,3.3,3.332,3.332,0,0,1-2.735,3.43c-1.076.214-2.168.35-3.254.511a2.084,2.084,0,0,1-.311.021C653.375,805.015,653.278,805.01,653.183,805Zm.609-39.578a9.791,9.791,0,0,0-.067,1.5q-.005,5.724,0,11.451h.1c0,3.616-.01,7.232,0,10.849a14.812,14.812,0,0,0,.137,3,31.208,31.208,0,0,1,.452,5.689,14.682,14.682,0,0,0,.246,2.059c.022.116.3.263.453.256s.411-.175.43-.3a12.176,12.176,0,0,0,.143-1.772c.013-7.734,0-15.467.037-23.2.009-2.1.2-4.2.293-6.307.027-.6.059-1.2.039-1.805-.035-1.021-.457-1.477-1.647-1.86a.58.58,0,0,0-.176-.03C653.958,764.953,653.826,765.2,653.792,765.426Z" transform="translate(-612.797 -738.167)"/>
</svg>