<?xml version="1.0" encoding="UTF-8" standalone="no"?>
<!DOCTYPE svg PUBLIC "-//W3C//DTD SVG 1.1//EN" "http://www.w3.org/Graphics/SVG/1.1/DTD/svg11.dtd">
<svg width="100%" height="100%" viewBox="0 0 500 500" version="1.1" xmlns="http://www.w3.org/2000/svg" xmlns:xlink="http://www.w3.org/1999/xlink" xml:space="preserve" xmlns:serif="http://www.serif.com/" style="fill-rule:evenodd;clip-rule:evenodd;stroke-linejoin:round;stroke-miterlimit:2;">
    <g id="logo" serif:id="logo">
        <g transform="matrix(1.000819,0,0,1.000819,0.018136,-0.082685)">
            <path d="M440,162.652L440,349.573C440,356.022 436.55,361.979 430.955,365.187L362.648,404.364C357.101,407.545 350.284,407.545 344.737,404.364L276.429,365.187C270.835,361.979 267.385,356.022 267.385,349.573L267.385,271.461C267.385,264.993 270.854,259.023 276.474,255.821L372.692,201L372.692,200.782L440,162.652Z" style="fill:rgb(255,77,109);"/>
            <path d="M372.692,200.782L372.692,101L422.049,129.598C433.16,136.036 440,147.906 440,160.747L440,162.652L372.692,200.782Z" style="fill:rgb(178,39,72);"/>
        </g>
        <g transform="matrix(-0.495948,-0.859007,0.859007,-0.495948,158.15141,586.415061)">
            <path d="M440,162.652L440,349.573C440,356.022 436.55,361.979 430.955,365.187L362.648,404.364C357.101,407.545 350.284,407.545 344.737,404.364L276.429,365.187C270.835,361.979 267.385,356.022 267.385,349.573L267.385,271.461C267.385,264.993 270.854,259.023 276.474,255.821L372.692,201L372.692,200.782L440,162.652Z" style="fill:rgb(41,181,240);"/>
            <path d="M372.692,200.782L372.692,101L422.049,129.598C433.16,136.036 440,147.906 440,160.747L440,162.652L372.692,200.782Z" style="fill:rgb(19,115,182);"/>
        </g>
        <g transform="matrix(-0.500409,0.866734,-0.866734,-0.500409,592.049884,158.497743)">
            <path d="M440,162.652L440,349.573C440,356.022 436.55,361.979 430.955,365.187L362.648,404.364C357.101,407.545 350.284,407.545 344.737,404.364L276.429,365.187C270.835,361.979 267.385,356.022 267.385,349.573L267.385,271.461C267.385,264.993 270.854,259.023 276.474,255.821L372.692,201L372.692,200.782L440,162.652Z" style="fill:rgb(155,216,60);"/>
            <path d="M372.692,200.782L372.692,101L422.049,129.598C433.16,136.036 440,147.906 440,160.747L440,162.652L372.692,200.782Z" style="fill:rgb(79,138,27);"/>
        </g>
    </g>
</svg>
